<?xml version="1.0" encoding="UTF-8"?>
<svg version="1.1" viewBox="0 0 1600 1600" width="1280" height="1280" xmlns="http://www.w3.org/2000/svg">
<path transform="translate(0)" d="m0 0h1600v1600h-1600v-1600z" fill="#FAFCFE"/>
<path transform="translate(385 408)" d="m0 0c1.43 0.0085 1.43 0.0085 2.89 0.0172 1.57 0.0248 1.57 0.0248 3.18 0.0501 1.68 0.0142 1.68 0.0142 3.39 0.0287 2.47 0.0222 4.94 0.0493 7.4 0.0803 4.06 0.051 8.12 0.0899 12.2 0.126 5.97 0.0537 11.9 0.113 17.9 0.177 15.5 0.165 31.1 0.293 46.6 0.414 1.76 0.0137 3.52 0.0276 5.27 0.0415 31.4 0.249 62.9 0.319 94.3 0.307 1.09-3.63e-4 2.18-7.25e-4 3.3-0.0011 21.7-0.00756 43.4-0.0282 65.1-0.0617 8.22-0.0125 16.4-0.0218 24.7-0.029 4.77-0.00445 9.55-0.0109 14.3-0.0225 17.3-0.0415 34.5-0.0498 51.8 0.846 8.16 0.411 16.3 0.374 24.5 0.362 1.78 6.79e-4 3.57 0.00165 5.35 0.0029 3.71 0.00146 7.42-6.06e-4 11.1-0.00534 4.63-0.00564 9.26-0.00244 13.9 0.00357 3.68 0.00371 7.36 0.00242 11-1.28e-4 1.7-6.43e-4 3.4 6.09e-5 5.1 0.00248 8.96 0.00994 17.9-0.0877 26.9-0.363 21.4-0.656 42.7-0.921 64-0.904 4.42 0.00232 8.85-0.00126 13.3-0.00398 8.6-0.00438 17.2-0.00352 25.8-5.87e-4 6.98 0.00228 14 0.00256 21 0.00148 1-1.53e-4 2-3.06e-4 3.04-4.64e-4 2.04-3.2e-4 4.07-6.44e-4 6.11-9.73e-4 19-0.00283 37.9 3.99e-4 56.9 0.0058 16.3 0.00449 32.5 0.00367 48.8-9.19e-4 19-0.00534 37.9-0.00746 56.9-0.00439 2.02 3.19e-4 4.03 6.33e-4 6.05 9.43e-4 0.992 1.54e-4 1.98 3.09e-4 3.01 4.68e-4 6.99 8.64e-4 14-5.94e-4 21-0.00295 8.49-0.0028 17-0.00206 25.5 0.00328 4.33 0.00264 8.67 0.00364 13 3.51e-4 3.96-0.00296 7.92-0.00137 11.9 0.00398 1.44 0.00112 2.87 5.35e-4 4.31-0.00188 1.94-0.00301 3.88 6.54e-4 5.83 0.00472 1.08 1.62e-4 2.16 3.25e-4 3.28 4.92e-4 2.53 0.125 2.53 0.125 4.53 1.13-0.57 3.99-1.77 6.59-3.99 9.94-0.633 0.963-1.27 1.93-1.92 2.92-1.03 1.55-1.03 1.55-2.09 3.14-1.08 1.66-2.17 3.32-3.25 4.98-1.55 2.37-3.1 4.73-4.65 7.1-2.1 3.19-4.19 6.39-6.29 9.59-0.415 0.632-0.829 1.26-1.26 1.92-8.34 12.7-16.6 25.5-24.9 38.3-1.8 2.79-3.61 5.57-5.42 8.34-0.92 1.41-1.84 2.82-2.76 4.23-0.452 0.695-0.905 1.39-1.37 2.1-2.88 4.45-5.64 8.95-8.36 13.5-17.5 29.2-41 43.5-73.3 52.4-6.16 1.4-12.2 1.73-18.5 1.77-0.869 0.0099-1.74 0.0198-2.63 0.03-2.85 0.0314-5.7 0.0563-8.55 0.0811-1.99 0.0206-3.97 0.0416-5.96 0.063-5.21 0.055-10.4 0.105-15.6 0.153-5.32 0.0504-10.6 0.106-16 0.161-10.4 0.107-20.9 0.209-31.3 0.307 0.456 1.09 0.913 2.17 1.38 3.29 0.257 0.611 0.514 1.22 0.778 1.85 1.35 3 3.04 5.78 4.71 8.61 13.2 22.8 17.5 48.1 11.1 74.1-4.55 14.8-11.2 26-22 37.2-0.722 0.785-1.44 1.57-2.19 2.38-11.7 12.3-26.8 19.2-43.8 19.9-4.38-0.101-7.66-1.5-11-4.31-5.3-5.73-9.5-12.5-13.9-19-2.06-3.02-2.06-3.02-4.35-5.75-1.77-2.27-1.77-2.27-2.33-4.83 0.814-3.53 2.63-4.4 5.56-6.44 2.04-0.798 4.1-1.52 6.19-2.19 9.36-3.47 16.3-9.42 20.8-18.4 6.57-15.4 7.87-28.4 2.02-44.4-6.24-13.6-18.3-27.7-32-34-1.42-0.684-1.42-0.684-2.86-1.38-6.21-2.82-12.1-4.38-18.8-5.26-2.3-0.359-2.3-0.359-3.3-1.36-1.53-0.0828-3.07-0.0964-4.61-0.0818-1.47 0.0098-1.47 0.0098-2.97 0.0198-1.6 0.0172-1.6 0.0172-3.24 0.0347-2.25 0.0127-4.5 0.025-6.74 0.0371-3.56 0.0248-7.11 0.0527-10.7 0.0862-3.42 0.0303-6.85 0.048-10.3 0.0642-1.59 0.0202-1.59 0.0202-3.21 0.0408-9.94 0.0337-9.94 0.0337-14.3-2.2-1.72-2.76-2.25-4.89-2.27-8.12-0.00953-0.801-0.0191-1.6-0.0289-2.43 0.00137-1.29 0.00137-1.29 0.00276-2.6-0.00429-0.89-0.00857-1.78-0.013-2.7-0.00574-1.88-0.00625-3.76-0.00191-5.64 0.00315-2.87-0.0203-5.74-0.0457-8.6-0.00227-1.83-0.00298-3.66-0.00195-5.49-0.00921-0.853-0.0184-1.71-0.0279-2.59 0.0383-4.97 0.432-8.63 3.39-12.8 3.44-1.75 5.74-2.19 9.53-1.64 8.96 1.01 18 0.801 27 0.813 2.07 0.00627 4.14 0.0129 6.2 0.0199 6.76 0.0209 13.5 0.0314 20.3 0.0414 2.33 0.00405 4.67 0.00817 7 0.0124 11 0.019 21.9 0.0333 32.9 0.0416 12.6 0.00978 25.3 0.0361 37.9 0.0765 9.78 0.0302 19.6 0.045 29.4 0.0483 5.83 0.00234 11.7 0.0112 17.5 0.0365 5.49 0.0234 11 0.0275 16.5 0.0172 2-4.93e-4 4.01 0.00576 6.01 0.0196 19.1 0.124 36.9-2.93 51.3-16.6 10.6-11.2 10.6-11.2 16-25.1-0.5-4.29-1.29-6.13-4.15-9.27-5.17-3.35-12-2.39-18-2.29-1.62 3.38e-4 -3.24-0.0024-4.86-0.00797-4.4-0.00628-8.8 0.0308-13.2 0.0758-4.65 0.0403-9.3 0.0412-13.9 0.0468-7.84 0.0147-15.7 0.0548-23.5 0.113-10.9 0.0808-21.8 0.118-32.7 0.146-31.3 0.0837-62.6 0.222-94 1.09-14.9 0.407-29.7 0.506-44.6 0.48-3.55-0.00585-7.09-0.00229-10.6 0.00357-2.82 0.00364-5.64 0.00245-8.47-1.28e-4 -1.93-9.6e-4 -3.85 0.00199-5.78 0.00513-7.09-0.0188-14.1-0.36-21.1-0.912-5.67-0.372-11.3-0.37-17-0.36-1.83-0.00144-1.83-0.00144-3.69-0.0029-2.54-6.74e-4 -5.09 0.00113-7.63 0.00534-3.91 0.00542-7.82 1.11e-6 -11.7-0.00635-2.48 6.6e-4 -4.96 0.00194-7.45 0.00391-1.17-0.00202-2.34-0.00405-3.55-0.00613-1.08 0.00315-2.15 0.0063-3.26 0.00955-1.42 0.00119-1.42 0.00119-2.87 0.00241-2.31-0.0219-2.31-0.0219-4.27 1.13-1.41 0.0928-2.82 0.124-4.23 0.123-0.892 0.00199-1.78 0.00398-2.7 0.00603-0.986-0.00291-1.97-0.00583-2.99-0.00883-1.04 8.54e-4 -2.09 0.00171-3.16 0.00259-3.52 0.00166-7.04-0.00387-10.6-0.00932-2.51-2.82e-4 -5.03-1.24e-4 -7.54 4.43e-4 -5.42 2.28e-4 -10.8-0.00262-16.3-0.00824-7.84-0.00812-15.7-0.0107-23.5-0.012-12.7-0.00219-25.4-0.00885-38.1-0.0183-12.4-0.00917-24.7-0.0163-37.1-0.0205-0.761-2.63e-4 -1.52-5.25e-4 -2.31-7.96e-4 -3.82-0.00131-7.64-0.00257-11.5-0.00381-31.7-0.0104-63.4-0.0281-95.1-0.0503-1.6 6.79 0.903 11.9 4 18 2 2.63 4.09 4.96 6.43 7.29 1.57 1.71 1.57 1.71 1.57 3.71 0.593 0.266 1.19 0.531 1.8 0.805 2.26 1.23 3.65 2.51 5.45 4.32 8.49 7.64 20.7 12.9 31.9 14.9 4.69 0.884 4.69 0.884 6.68 1.46 2.63 0.574 5.05 0.607 7.75 0.61 1.13 0.00401 2.26 0.00802 3.42 0.0121 1.24-5.29e-4 2.47-0.00106 3.74-0.0016 2 0.00533 4.01 0.0107 6.01 0.0162 2.15 0.0052 4.31 0.00811 6.46 0.0106 4.51 0.00593 9.02 0.0225 13.5 0.0413 1.55 0.00634 3.1 0.0127 4.64 0.019 0.775 0.00317 1.55 0.00633 2.35 0.00959 10.5 0.0419 21 0.075 31.5 0.0874 7.08 0.00845 14.2 0.0312 21.2 0.0694 3.74 0.0196 7.47 0.0322 11.2 0.0272 23.3-0.0255 48.1 0.544 68.4 13.6 1.01 0.642 2.01 1.28 3.05 1.95 9 6.02 16.4 12.6 21.9 22.1v2h2c1.29 2.41 2.55 4.83 3.81 7.25 0.356 0.663 0.713 1.33 1.08 2.01 5.87 11.4 6.59 22.7 6.5 35.3-0.0161 2.53-6.16e-5 5.05 0.019 7.57 0.017 11.6-0.994 21.6-7.04 31.8-0.522 0.879-0.522 0.879-1.05 1.78-9.25 15.4-20.5 29.5-31.5 43.7-9.37 12.2-18.6 24.4-27.8 36.7-0.675 0.897-1.35 1.79-2.05 2.72-5.17 6.87-10.3 13.8-15.4 20.7-4.41 5.99-8.86 11.9-13.3 17.9-4.62 6.14-9.18 12.3-13.6 18.6-3.61 5.09-7.35 10.1-11.1 15.1-6.35 8.43-12.6 16.9-18.8 25.5-5.61 7.81-11.3 15.5-17.2 23.1-3.06 3.98-5.97 8.06-8.89 12.1-4.8 6.69-9.72 13.3-14.7 19.8-4.05 5.27-8.02 10.6-11.9 16-12.3 16.8-12.3 16.8-18.5 24.4-1.55 1.98-1.55 1.98-2.45 4.15-1.4 2.71-2.55 4.12-5.05 5.9-6.17 1.16-12.3 0.931-18.5 0.781-1.83-0.0149-3.66-0.0263-5.49-0.0343-4.8-0.0305-9.61-0.109-14.4-0.198-4.91-0.082-9.81-0.118-14.7-0.159-9.62-0.0857-19.2-0.222-28.9-0.391-0.629-1.85-0.629-1.85-1-4 1.65-1.87 3.26-3.42 5.12-5.06 6.79-6.34 11.7-13.6 16.8-21.3 3.37-5.08 7.02-9.87 10.8-14.7 2.28-2.91 4.49-5.87 6.7-8.84 3.39-4.54 6.88-8.97 10.4-13.4 6.26-7.77 12.2-15.7 18.2-23.8 5.15-6.92 10.4-13.8 15.7-20.6 4.93-6.3 9.72-12.7 14.4-19.1 4.63-6.34 9.39-12.5 14.3-18.6 4.02-4.98 7.83-10.1 11.6-15.3 7.49-10.2 15.2-20.3 23.4-29.9 4.93-5.74 9.39-11.8 13.8-17.9 6.63-9.17 13.7-18 20.9-26.7 6.63-8.14 13-16.5 19.3-24.9 3.31-4.43 6.69-8.79 10.1-13.1 11.8-15 23.4-29.9 22.4-49.9-2.27-8.69-6.8-16.4-13.6-22.2-9.62-4.99-19.7-6.78-30.4-7.75-1.24-0.124-1.24-0.124-2.5-0.25-11.7-1.01-23.5-0.917-35.3-0.949-4.01-0.0119-8.03-0.0311-12-0.0531-11.4-0.0614-22.8-0.116-34.2-0.149-6.32-0.0185-12.6-0.0475-19-0.088-3.33-0.0208-6.66-0.0348-9.98-0.0388-13.7-0.0182-26.7-0.126-40-3.47-1.22-0.29-2.44-0.58-3.7-0.879-8.81-2.16-16.5-5.9-24.5-10.2-1.63-0.868-3.28-1.71-4.93-2.54-6.52-3.37-12.6-7.32-17.9-12.4v-2c-0.599-0.256-1.2-0.512-1.82-0.776-6.28-3.52-9.8-11.8-13.2-17.9-4.61-8.14-9.63-15.9-14.9-23.7-3.54-5.23-6.96-10.5-10.3-15.9-3.4-5.54-7.02-10.9-10.8-16.1-4.72-6.56-9.02-13.3-13.2-20.2-2.64-4.39-5.34-8.7-8.19-13-0.624-0.933-1.25-1.87-1.89-2.83-1.19-1.72-2.4-3.42-3.66-5.09-2.77-3.79-4.11-5.65-4.27-10.5 1.12-3.06 1.12-3.06 2.9-4.24 2.49-0.917 4.31-1.05 6.95-1.02z" fill="#184F67"/>
<path transform="translate(911 409)" d="m0 0c1.37-0.00115 2.74-0.00274 4.11-0.00473 3.74-0.00415 7.47-0.00212 11.2 9.86e-4 4.04 0.00227 8.08-0.00123 12.1-0.00398 7.9-0.00444 15.8-0.00349 23.7-5.87e-4 6.42 0.00226 12.8 0.00256 19.2 0.00148 1.37-2.3e-4 1.37-2.3e-4 2.77-4.64e-4 1.86-3.2e-4 3.71-6.44e-4 5.57-9.73e-4 17.4-0.00285 34.8 4.23e-4 52.2 0.0058 14.9 0.00447 29.9 0.00369 44.8-9.19e-4 17.3-0.00535 34.7-0.00746 52-0.00439 1.85 3.19e-4 3.69 6.33e-4 5.54 9.43e-4 1.36 2.31e-4 1.36 2.31e-4 2.75 4.68e-4 6.42 8.65e-4 12.8-5.96e-4 19.2-0.00295 7.81-0.0028 15.6-0.00206 23.4 0.00328 3.99 0.00264 7.97 0.00364 12 3.51e-4 3.64-0.00297 7.29-0.00137 10.9 0.00398 1.95 0.00166 3.91-0.00163 5.86-0.00506 1.15 0.00261 2.29 0.00522 3.48 0.0079 0.996 1.62e-4 1.99 3.25e-4 3.02 4.92e-4 2.35 0.125 2.35 0.125 4.35 1.13-0.57 3.99-1.77 6.59-3.99 9.94-0.633 0.963-1.27 1.93-1.92 2.92-0.69 1.04-1.38 2.07-2.09 3.14-1.08 1.66-2.17 3.32-3.25 4.98-1.55 2.37-3.1 4.73-4.65 7.1-2.1 3.19-4.19 6.39-6.29 9.59-0.415 0.632-0.829 1.26-1.26 1.92-8.34 12.7-16.6 25.5-24.9 38.3-1.8 2.79-3.61 5.57-5.42 8.34-0.92 1.41-1.84 2.82-2.76 4.23-0.679 1.04-0.679 1.04-1.37 2.1-2.88 4.45-5.64 8.95-8.36 13.5-17.5 29.2-41 43.5-73.3 52.4-6.16 1.4-12.2 1.73-18.5 1.77-0.869 0.0099-1.74 0.0198-2.63 0.03-2.85 0.0314-5.7 0.0563-8.55 0.0811-1.99 0.0206-3.97 0.0416-5.96 0.063-5.21 0.055-10.4 0.105-15.6 0.153-5.32 0.0504-10.6 0.106-16 0.161-10.4 0.107-20.9 0.209-31.3 0.307 0.456 1.09 0.913 2.17 1.38 3.29 0.257 0.611 0.514 1.22 0.778 1.85 1.35 3 3.04 5.78 4.71 8.61 13.2 22.8 17.5 48.1 11.1 74.1-4.55 14.8-11.2 26-22 37.2-0.722 0.785-1.44 1.57-2.19 2.38-11.7 12.3-26.8 19.2-43.8 19.9-4.38-0.101-7.66-1.5-11-4.31-5.3-5.73-9.5-12.5-13.9-19-2.06-3.02-2.06-3.02-4.35-5.75-1.77-2.27-1.77-2.27-2.33-4.83 0.814-3.53 2.63-4.4 5.56-6.44 2.04-0.798 4.1-1.52 6.19-2.19 9.36-3.47 16.3-9.42 20.8-18.4 6.57-15.4 7.87-28.4 2.02-44.4-6.24-13.6-18.3-27.7-32-34-0.944-0.456-1.89-0.913-2.86-1.38-6.21-2.82-12.1-4.38-18.8-5.26-2.3-0.359-2.3-0.359-3.3-1.36-1.53-0.0828-3.07-0.0964-4.61-0.0818-1.47 0.0098-1.47 0.0098-2.97 0.0198-1.6 0.0172-1.6 0.0172-3.24 0.0347-2.25 0.0127-4.5 0.025-6.74 0.0371-3.56 0.0248-7.11 0.0527-10.7 0.0862-3.42 0.0303-6.85 0.048-10.3 0.0642-1.59 0.0202-1.59 0.0202-3.21 0.0408-9.94 0.0337-9.94 0.0337-14.3-2.2-1.72-2.76-2.25-4.89-2.27-8.12-0.00953-0.801-0.0191-1.6-0.0289-2.43 9.11e-4 -0.857 0.00182-1.71 0.00276-2.6-0.00429-0.89-0.00857-1.78-0.013-2.7-0.00574-1.88-0.00625-3.76-0.00191-5.64 0.00315-2.87-0.0203-5.74-0.0457-8.6-0.00227-1.83-0.00298-3.66-0.00195-5.49-0.00921-0.853-0.0184-1.71-0.0279-2.59 0.0383-4.97 0.432-8.63 3.39-12.8 3.44-1.75 5.74-2.19 9.53-1.64 8.96 1.01 18 0.801 27 0.813 2.07 0.00627 4.14 0.0129 6.2 0.0199 6.76 0.0209 13.5 0.0314 20.3 0.0414 2.33 0.00405 4.67 0.00817 7 0.0124 11 0.019 21.9 0.0333 32.9 0.0416 12.6 0.00978 25.3 0.0361 37.9 0.0765 9.78 0.0302 19.6 0.045 29.4 0.0483 5.83 0.00234 11.7 0.0112 17.5 0.0365 5.49 0.0234 11 0.0275 16.5 0.0172 2-4.93e-4 4.01 0.00576 6.01 0.0196 19.1 0.124 36.9-2.93 51.3-16.6 10.6-11.2 10.6-11.2 16-25.1-0.5-4.29-1.29-6.13-4.15-9.27-5.17-3.35-12-2.39-18-2.29-1.62 3.38e-4 -3.24-0.0024-4.86-0.00797-4.4-0.00628-8.8 0.0308-13.2 0.0758-4.65 0.0403-9.3 0.0412-13.9 0.0468-7.84 0.0147-15.7 0.0548-23.5 0.113-10.9 0.0808-21.8 0.118-32.7 0.146-31.4 0.084-62.9 0.196-94.3 1.14-12.3 0.354-24.5 0.167-36.7-0.7-1.12-4.75-1.12-4.75 0-7 1.61-0.473 3.24-0.88 4.88-1.25 4.11-1.18 4.11-1.18 7.12-4.12 1.51-5.47 2.29-11 3-16.6h3l1-3h3c1.82-1.31 1.82-1.31 3.56-3 3.23-3 3.23-3 5.44-3 0.99-0.33 1.98-0.66 3-1 0.249-1.6 0.474-3.21 0.688-4.81 0.128-0.893 0.255-1.79 0.387-2.71 0.186-2.54 0.186-2.54-1.55-4.18-0.501-0.429-1-0.859-1.52-1.3v-2c-0.99 0.33-1.98 0.66-3 1-1.73-0.0846-3.46-0.236-5.19-0.438-0.901-0.102-1.8-0.204-2.73-0.309-1.03-0.126-1.03-0.126-2.08-0.254v-1c7.92-0.995 15.7-1.14 23.7-1.13z" fill="#0F3545"/>
<path transform="translate(591,518)" d="m0 0c13.2-0.0933 26.4-0.164 39.6-0.207 6.14-0.0207 12.3-0.0488 18.4-0.0945 5.94-0.0439 11.9-0.0675 17.8-0.0778 2.25-0.00731 4.5-0.0216 6.75-0.0434 21.2-0.198 44 1.61 62.4 13.4 1.01 0.642 2.01 1.28 3.05 1.95 9 6.02 16.4 12.6 21.9 22.1v2h2c1.29 2.41 2.55 4.83 3.81 7.25 0.356 0.663 0.713 1.33 1.08 2.01 5.87 11.4 6.59 22.7 6.5 35.3-0.0161 2.53-6.16e-5 5.05 0.019 7.57 0.017 11.6-0.994 21.6-7.04 31.8-0.348 0.586-0.695 1.17-1.05 1.78-9.25 15.4-20.5 29.5-31.5 43.7-9.37 12.2-18.6 24.4-27.8 36.7-0.675 0.897-1.35 1.79-2.05 2.72-5.17 6.87-10.3 13.8-15.4 20.7-4.41 5.99-8.86 11.9-13.3 17.9-4.62 6.14-9.18 12.3-13.6 18.6-3.61 5.09-7.35 10.1-11.1 15.1-6.35 8.43-12.6 16.9-18.8 25.5-5.61 7.81-11.3 15.5-17.2 23.1-3.06 3.98-5.97 8.06-8.89 12.1-4.8 6.69-9.72 13.3-14.7 19.8-4.05 5.27-8.02 10.6-11.9 16-12.3 16.8-12.3 16.8-18.5 24.4-1.55 1.98-1.55 1.98-2.45 4.15-1.4 2.71-2.55 4.12-5.05 5.9-6.17 1.16-12.3 0.931-18.5 0.781-1.83-0.0149-3.66-0.0263-5.49-0.0343-4.8-0.0305-9.61-0.109-14.4-0.198-4.91-0.082-9.81-0.118-14.7-0.159-9.62-0.0857-19.2-0.222-28.9-0.391-0.629-1.85-0.629-1.85-1-4 1.65-1.87 3.26-3.42 5.12-5.06 6.79-6.34 11.7-13.6 16.8-21.3 3.37-5.08 7.02-9.87 10.8-14.7 2.28-2.91 4.49-5.87 6.7-8.84 3.39-4.54 6.88-8.97 10.4-13.4 6.26-7.77 12.2-15.7 18.2-23.8 5.15-6.92 10.4-13.8 15.7-20.6 4.93-6.3 9.72-12.7 14.4-19.1 4.63-6.34 9.39-12.5 14.3-18.6 4.02-4.98 7.83-10.1 11.6-15.3 7.49-10.2 15.2-20.3 23.4-29.9 4.93-5.74 9.39-11.8 13.8-17.9 6.63-9.17 13.7-18 20.9-26.7 6.63-8.14 13-16.5 19.3-24.9 3.31-4.43 6.69-8.79 10.1-13.1 11.8-15 23.4-29.9 22.4-49.9-2.27-8.69-6.8-16.4-13.6-22.2-15.9-8.25-35-8.79-52.6-8.82-2.09-0.0148-4.19-0.0313-6.28-0.0479-1.43-0.00462-2.86 0.00184-4.29 0.0186-12 0.119-12 0.119-15-2.41-1.09-1.86-1.09-1.86-2.19-5.49-0.33-0.99-0.66-1.98-1-3-0.887-0.0619-1.77-0.124-2.69-0.188-4.3-1.06-5.73-2.2-8.31-5.81-0.397-2.42-0.508-4.79-0.629-7.24-0.673-5-3.17-9.27-5.37-13.8-1.67-4.22-2.22-7.46-2-12 0.66-0.33 1.32-0.66 2-1l-2-2z" fill="#1C7F9F"/>
<path transform="translate(581,409)" d="m0 0c17.6-0.0235 35.2-0.0411 52.8-0.0518 8.17-0.00513 16.3-0.0121 24.5-0.0236 7.13-0.0101 14.3-0.0164 21.4-0.0186 3.77-0.00129 7.53-0.00425 11.3-0.0116 14.4-0.0271 28.7 0.0241 43.1 0.743 9.15 0.453 18.3 0.508 27.4 0.495 1.78 6.79e-4 3.57 0.00165 5.35 0.0029 3.71 0.00146 7.42-6.06e-4 11.1-0.00534 4.63-0.00564 9.26-0.00235 13.9 0.00345 20.7 0.0218 41.3-0.219 62-0.845 9.63-0.291 19.3-0.415 28.9-0.351 1.42 0.00507 2.84 0.00962 4.26 0.0137 3.31 0.0105 6.62 0.0273 9.92 0.0488 0.33 0.66 0.66 1.32 1 2h2v2c0.99 0.33 1.98 0.66 3 1 1.78 4.16 0.369 7.89-1 12-4.33 3-4.33 3-7 3-1.79 1.33-1.79 1.33-3.62 3-0.632 0.557-1.26 1.11-1.91 1.69-0.482 0.433-0.964 0.866-1.46 1.31-0.33-0.33-0.66-0.66-1-1-0.33 0.66-0.66 1.32-1 2h-3c0.0928 1.7 0.0928 1.7 0.188 3.44 0.0109 6.1-1.82 11.5-5.19 16.6-2.38 0.73-2.38 0.73-5.12 1.19-0.91 0.159-1.82 0.317-2.76 0.48-0.699 0.11-1.4 0.219-2.12 0.332 0.186 0.577 0.371 1.15 0.562 1.75 0.481 2.47 0.115 3.86-0.562 6.25-5.87 0.025-11.7 0.043-17.6 0.0549-1.99 0.00498-3.98 0.0118-5.97 0.0205-2.88 0.0123-5.77 0.0178-8.65 0.0222-0.868 0.00516-1.74 0.0103-2.63 0.0156-5.02 4.41e-4 -9.97-0.222-15-0.611-6.92-0.527-13.8-0.647-20.7-0.635-1.83-0.00144-1.83-0.00144-3.69-0.0029-2.54-6.74e-4 -5.09 0.00113-7.63 0.00534-3.91 0.00542-7.82 1.11e-6 -11.7-0.00635-2.48 6.6e-4 -4.96 0.00194-7.45 0.00391-1.17-0.00202-2.34-0.00405-3.55-0.00613-1.08 0.00315-2.15 0.0063-3.26 0.00955-1.42 0.00119-1.42 0.00119-2.87 0.00241-2.31-0.0219-2.31-0.0219-4.27 1.13-2.43 0.0954-4.83 0.13-7.26 0.12-1.14 0.00128-1.14 0.00128-2.29 0.00259-2.55 0.00165-5.1-0.00387-7.65-0.00932-1.82-2.82e-4 -3.65-1.24e-4 -5.47 4.43e-4 -4.96 2.88e-4 -9.92-0.00561-14.9-0.0126-5.18-0.00624-10.4-0.00684-15.5-0.00803-9.81-0.00311-19.6-0.0113-29.4-0.0213-11.2-0.0112-22.3-0.0167-33.5-0.0217-23-0.0105-46-0.0281-68.9-0.0503v-4c0.99 0.33 1.98 0.66 3 1 2.45-4.58 3.6-8.45 4.39-13.5 0.877-5.3 1.64-7.74 5.61-11.5 1.22-2.94 2.14-5.94 3-9h2c0.33-3.96 0.66-7.92 1-12h-2c-3.02-2.3-3.37-4.36-4-8z" fill="#43B3C8"/>
<path transform="translate(635,713)" d="m0 0c3.37 0.547 5.08 1.05 8 3v2c0.931 1.37 1.92 2.7 2.94 4 3.93 5.06 4.61 8.56 4.06 15-0.657 3.08-1.45 6.1-2.26 9.14-1.7 6.54-2.01 11.5 0.258 17.9h2c1.01 10.2 1.01 10.2 0.938 14.6-0.213 2.62-0.213 2.62 2.06 4.44 0.414 2.06 0.414 2.06 0.625 4.44 0.0748 0.782 0.15 1.56 0.227 2.37 0.353 5.2-1.19 7.27-4.35 11.2-0.932 1.18-1.86 2.37-2.79 3.55-0.463 0.587-0.927 1.17-1.4 1.78-3.73 4.78-7.22 9.76-10.8 14.7-6.2 8.64-12.4 17.2-19 25.6-3.06 3.98-5.97 8.06-8.89 12.1-4.8 6.69-9.72 13.3-14.7 19.8-4.05 5.27-8.02 10.6-11.9 16-12.3 16.8-12.3 16.8-18.5 24.4-1.55 1.98-1.55 1.98-2.45 4.15-1.4 2.71-2.55 4.12-5.05 5.9-6.17 1.16-12.3 0.931-18.5 0.781-1.83-0.0149-3.66-0.0263-5.49-0.0343-4.8-0.0305-9.61-0.109-14.4-0.198-4.91-0.082-9.81-0.118-14.7-0.159-9.62-0.0857-19.2-0.222-28.9-0.391-0.629-1.85-0.629-1.85-1-4 1.65-1.87 3.26-3.42 5.12-5.06 6.79-6.34 11.7-13.6 16.8-21.3 3.37-5.08 7.02-9.87 10.8-14.7 2.28-2.91 4.49-5.87 6.7-8.84 3.39-4.54 6.88-8.97 10.4-13.4 6.26-7.77 12.2-15.7 18.2-23.8 5.15-6.92 10.4-13.8 15.7-20.6 4.93-6.3 9.72-12.7 14.4-19.1 4.63-6.34 9.39-12.5 14.3-18.6 4.02-4.98 7.83-10.1 11.6-15.3 7.9-10.8 16.1-21.3 24.8-31.4 5.43-6.38 10.3-13.2 15.1-20z" fill="#0F3545"/>
<path transform="translate(830,665)" d="m0 0c2.15 0.0234 2.15 0.0234 5 1 2.2 2.32 3.88 4.96 5.62 7.62 1.06 1.56 2.12 3.12 3.19 4.68 0.532 0.789 1.06 1.58 1.61 2.39 2.32 3.39 4.75 6.69 7.2 9.99 3.56 4.83 7.08 9.68 10.6 14.6 5.17 7.26 10.3 14.5 15.7 21.6 10.5 13.8 17.2 23 17.3 40.6 0.0173 1.55 0.0173 1.55 0.0349 3.13 0.0366 3.4 0.0663 6.81 0.0955 10.2 0.0231 2.39 0.0465 4.77 0.0702 7.16 0.0484 5.01 0.0933 10 0.136 15 0.0544 6.36 0.118 12.7 0.185 19.1 0.0506 4.93 0.0955 9.87 0.139 14.8 0.0213 2.34 0.0444 4.68 0.0695 7.03 0.14 13.4-0.043 26.7-0.838 40-0.248 4.46-0.341 8.93-0.43 13.4-0.0312 1.39-0.0312 1.39-0.063 2.81-0.0636 2.86-0.123 5.72-0.183 8.58-0.0434 1.98-0.087 3.96-0.131 5.94-0.105 4.77-0.207 9.54-0.307 14.3-60.9 2.05-60.9 2.05-67-2 0.0711-0.603 0.142-1.21 0.215-1.83 0.902-8.56 0.912-17.1 0.882-25.7-0.00192-1.64-0.00338-3.28-0.00443-4.92-0.00314-3.52-0.00939-7.03-0.0181-10.5-0.0136-5.58-0.0194-11.2-0.0241-16.7-0.012-12.9-0.034-25.7-0.0562-38.6-0.0203-11.8-0.0383-23.5-0.0482-35.3-0.00412-4.63-0.0104-9.26-0.0217-13.9-0.12-49.3-0.12-49.3 2.08-61.5 0.05-2.32 0.05-2.32-0.121-4.58-0.0483-0.842-0.0967-1.68-0.146-2.55-0.0841-1.33-0.0841-1.33-0.17-2.68-0.436-7.66-0.66-15.3-0.525-22.9 0.039-3.05-0.0614-5.31-1.04-8.24-0.0929-1.69-0.13-3.37-0.125-5.06-0.00258-0.878-0.00516-1.76-0.00781-2.66 0.133-2.28 0.133-2.28 1.13-4.28z" fill="#1C7F9F"/>
<path transform="translate(939 758)" d="m0 0c0.762-9.57e-4 1.52-0.00191 2.31-0.0029 1.61-6.81e-4 3.23 0.00117 4.84 0.00534 2.46 0.00533 4.92 6.41e-5 7.39-0.00635 1.57 6.61e-4 3.14 0.00194 4.71 0.00391 0.734-0.00202 1.47-0.00405 2.22-0.00613 3.77 0.0171 7.17 0.399 10.9 1.14 2.26 0.0241 4.51-0.00727 6.77-0.0781 1.95-0.0387 1.95-0.0387 3.94-0.0781 2.05-0.0431 4.09-0.0936 6.14-0.166 14-0.474 14-0.474 19.5 3.68 3.25 3.17 6 6.61 8.68 10.3 0.915 1.21 0.915 1.21 1.85 2.44 3.75 4.98 7.4 10 11 15.1 2.79 3.73 5.73 7.31 8.69 10.9 4.11 5 8.01 10 11.6 15.4 3.57 5.07 7.5 9.88 11.4 14.7 3.65 4.6 7.28 9.23 10.9 13.9 1.07 1.36 2.14 2.72 3.21 4.08 6.39 8.13 12.7 16.3 18.6 24.7 3.57 5.05 7.41 9.85 11.3 14.7 3.84 4.75 7.53 9.59 11.2 14.5 2.44 3.27 4.92 6.5 7.41 9.73 0.835 1.08 1.67 2.17 2.5 3.25 1.42 1.84 2.84 3.69 4.27 5.52 0.548 0.713 1.1 1.43 1.66 2.16 0.7 0.903 0.7 0.903 1.41 1.82 0.961 1.49 0.961 1.49 0.961 3.49-10.3 0.0696-20.7 0.123-31 0.155-4.8 0.0156-9.59 0.0369-14.4 0.0709-4.63 0.0326-9.26 0.0505-13.9 0.0583-1.76 0.00554-3.53 0.0163-5.29 0.0326-2.48 0.0218-4.95 0.0248-7.43 0.0234-0.726 0.0108-1.45 0.0216-2.2 0.0327-5.61-0.034-9.61-1.4-13.8-5.14-5.38-6.22-10.1-12.8-14.8-19.5-5.47-7.8-11.2-15.4-17.1-22.8-8.56-10.8-17-21.8-25.4-32.7-2.99-3.93-6.03-7.82-9.11-11.7-4.52-5.68-8.71-11.4-12.7-17.5-2.67-4.02-5.55-7.87-8.46-11.7-1.47-2.18-1.47-2.18-1.47-4.18-1.49-0.495-1.49-0.495-3-1-1.64-1.88-3.14-3.75-4.62-5.75-0.439-0.58-0.878-1.16-1.33-1.76-3.78-5.03-7.32-10.2-10.9-15.4-2.71-3.84-5.63-7.46-8.65-11.1-1.53-2.02-1.53-2.02-2.53-5.02 3.17-6.35 6.05-6.15 12.7-6.13z" fill="#174E66"/>
<path transform="translate(185 1048)" d="m0 0c8.75 0.466 17.5 0.685 26.2 0.744 2.03 0.0139 4.07 0.0313 6.1 0.0497 8.36 0.0742 8.36 0.0742 16.7 0.114 3.47 0.0102 6.94 0.0398 10.4 0.0813 1.91 0.0178 3.82 0.0157 5.73 0.0128 13.6 0.188 27.1 3.42 37.4 12.8 8.16 8.76 11.5 20.7 11.3 32.5-0.491 11.8-3.37 21.7-11.7 30.4-6.72 5.61-14.8 8.41-23.2 10.4-2.21 0.466-2.21 0.466-4.18 1.54 0.711 7.47 4.81 12 9.81 17.3 12.2 13.2 12.2 13.2 12.2 16.7 0.566 0.229 1.13 0.459 1.71 0.695 2.89 1.65 4.66 3.68 6.85 6.18 0.764 0.864 1.53 1.73 2.32 2.62 5.12 6.05 5.12 6.05 5.12 9.51-2.52 0.251-5.04 0.476-7.56 0.688-0.704 0.0728-1.41 0.146-2.13 0.221-6.2 0.485-10.6-0.955-15.7-4.63-0.652-0.588-1.3-1.18-1.98-1.78-0.668-0.588-1.34-1.18-2.02-1.78-1.6-1.72-1.6-1.72-2.6-4.72h-2c-1.35-1.51-2.63-3.09-3.88-4.69-3.53-4.42-7.19-8.62-11.1-12.8-4.03-4.32-7.99-8.68-11.8-13.2-0.82-0.962-1.64-1.92-2.48-2.91-1.77-2.46-1.77-2.46-1.77-5.46-5.16-2.09-9.04-3.13-14.6-3.13-1.32-0.00129-2.63-0.00258-3.99-0.00391-0.686 0.00209-1.37 0.00419-2.08 0.00635-2.08 0.00533-4.16 6.19e-5 -6.24-0.00635-1.33 6.61e-4 -2.67 0.00194-4 0.00391-1.81 0.00169-1.81 0.00169-3.66 0.00342-3.22 0.123-6.23 0.523-9.39 1.13 0.0722 0.906 0.144 1.81 0.219 2.75 0.851 11.2 0.851 11.2 0.781 16.5-0.28 3.56-0.28 3.56 1 5.75 0.565 9.13 0.336 19.1-2 28-3.12 0.0579-6.25 0.0936-9.38 0.125-0.889 0.0168-1.78 0.0335-2.7 0.0508-0.851 0.00645-1.7 0.0129-2.58 0.0195-0.786 0.0105-1.57 0.0209-2.38 0.0317-1.97-0.227-1.97-0.227-3.97-2.23-0.151-1.88-0.151-1.88-0.0117-4.14 0.0471-0.824 0.0941-1.65 0.143-2.5 0.0599-0.862 0.12-1.72 0.182-2.61 0.0483-0.847 0.0967-1.69 0.146-2.57 0.274-4.46 0.788-8.77 1.54-13.2 0.0399-1.52 0.0435-3.04 0-4.56-0.0664-2.33-0.0373-4.28 0.502-6.55 0.653-3.78 0.592-7.48 0.536-11.3-8e-3 -0.835-0.016-1.67-0.0242-2.53-0.0278-2.75-0.0633-5.5-0.0993-8.25-0.0218-1.91-0.0432-3.83-0.0644-5.74-0.0454-4.01-0.0947-8.01-0.147-12-0.0663-5.14-0.124-10.3-0.178-15.4-0.0428-3.95-0.0902-7.9-0.139-11.8-0.0229-1.9-0.0444-3.79-0.0645-5.69-0.0287-2.65-0.0637-5.29-0.1-7.94-0.00733-0.786-0.0147-1.57-0.0222-2.38-0.0496-3.18-0.187-5.74-1.2-8.78-0.569-6.25-0.569-6.25 1.81-9.38 4.55-3.38 9.01-2.53 14.4-2.21z" fill="#0F3545"/>
<path transform="translate(770,704)" d="m0 0c0.99 0.33 1.98 0.66 3 1 1.08 35.4 1.8 70.9 0.36 106-1.05 27.9-0.69 55.8 0.284 83.7 0.249 7.25 0.439 14.5 0.512 21.8 0.0149 0.771 0.0297 1.54 0.045 2.34 0.0204 3.83-0.0235 5.58-2.2 8.84-2.71 0.399-2.71 0.399-6.19 0.432-1.3 0.0198-2.6 0.0396-3.94 0.06-1.43 0.00677-2.85 0.0132-4.28 0.0194-1.45 0.0168-2.91 0.035-4.36 0.0544-3.83 0.0476-7.66 0.0773-11.5 0.103-3.91 0.0298-7.82 0.0763-11.7 0.121-7.67 0.0861-15.3 0.153-23 0.209v-2h-2c-0.0468-16.1-0.082-32.3-0.104-48.4-0.0103-7.5-0.0243-15-0.0473-22.5-0.02-6.54-0.0328-13.1-0.0373-19.6-0.0026-3.46-0.00867-6.92-0.0233-10.4-0.0162-3.87-0.0165-7.74-0.0156-11.6-0.00719-1.14-0.0144-2.27-0.0218-3.44 0.0448-17.4 6.99-29.1 18.2-42.1 9.59-11.4 18.4-23.4 27.1-35.5 1.83-2.45 3.76-4.77 5.73-7.11 5.6-6.87 9.77-14.7 14.1-22.4z" fill="#174E66"/>
<path transform="translate(693,1047)" d="m0 0c2.2 3.3 2.29 4.46 2.43 8.32 0.0411 1.14 0.0821 2.29 0.124 3.47 0.0325 1.29 0.065 2.57 0.0985 3.9 0.0192 0.677 0.0384 1.35 0.0582 2.05 0.639 23.2 0.164 46.4-0.105 69.5-0.0718 6.3-0.136 12.6-0.201 18.9-0.127 12.3-0.263 24.6-0.404 36.8-2.58 0.0811-5.17 0.141-7.75 0.188-0.73 0.0251-1.46 0.0503-2.21 0.0762-3.28 0.0448-5.62-0.0327-8.53-1.63-1.51-1.64-1.51-1.64-1.94-4.01 0.0374-0.866 0.0748-1.73 0.113-2.62 0.0245-0.866 0.049-1.73 0.0742-2.62 0.238-2.38 0.238-2.38 1.24-5.38 0.095-1.94 0.131-3.88 0.133-5.82 0.00193-1.17 0.00387-2.33 0.00586-3.54-0.00677-1.87-0.00677-1.87-0.0137-3.77-0.00193-1.27-0.00387-2.54-0.00586-3.84-0.0373-8.12-0.317-16.2-0.904-24.3-0.224-3.93-0.211-7.76-0.152-11.7 0.0592-9.33-1.9-17.3-5.06-26.1-2.71 3.25-4.93 6.44-6.92 10.2-0.527 0.984-1.05 1.97-1.6 2.98-0.828 1.56-0.828 1.56-1.67 3.16-1.17 2.19-2.35 4.38-3.52 6.56-0.568 1.06-1.14 2.12-1.72 3.21-1.94 3.6-3.93 7.17-5.95 10.7-3.99 7.05-7.94 14.1-11.9 21.2-0.638 1.15-1.28 2.29-1.93 3.48-4.97 8.96-9.87 18-14.7 27-0.5 0.931-1 1.86-1.51 2.82-0.433 0.813-0.867 1.63-1.31 2.46-1.29 2.22-2.72 4.21-4.3 6.23-6.5-2.32-8.96-9.74-11.8-15.6-3.07-6.28-6.44-12.2-10.2-18.1-1.88-2.98-3.69-5.99-5.48-9.02-2.88-4.88-5.78-9.64-9.15-14.2-2.94-4.08-5.14-8.3-7.31-12.8-2.68-5.54-5.55-10.8-8.88-16-0.365-0.572-0.729-1.14-1.1-1.73-2.09-3.19-4.25-6.01-7.15-8.52h-2c0.00222 1.08 0.00444 2.16 0.00673 3.28 0.0203 10.2 0.0353 20.4 0.0451 30.5 0.00522 5.23 0.0123 10.5 0.0236 15.7 0.0109 5.05 0.0168 10.1 0.0194 15.2 0.00185 1.93 0.00546 3.86 0.0109 5.78 0.00725 2.7 0.00826 5.4 0.0078 8.09 0.0036 0.799 0.00719 1.6 0.0109 2.42-0.00655 3.51-0.18 6.64-1.12 10-3.88 0.953-7.21 1.02-11.2 0.688-1.05-0.0786-2.09-0.157-3.17-0.238-2.64-0.449-2.64-0.449-4.64-2.45-0.254-2.28-0.254-2.28-0.261-5.17-0.00708-1.1-0.0142-2.19-0.0215-3.32 0.00248-1.21 0.00495-2.42 0.00751-3.66-0.00511-1.27-0.0102-2.54-0.0155-3.84-0.0134-3.49-0.014-6.97-0.0114-10.5 0.00107-2.91-0.00381-5.82-0.00861-8.73-0.0111-6.87-0.0115-13.7-0.00549-20.6 0.00603-7.08-0.00625-14.2-0.0276-21.2-0.0176-6.08-0.0236-12.2-0.0204-18.2 0.00181-3.63-8.12e-4 -7.26-0.0147-10.9-0.0149-4.05-0.0056-8.11 0.00601-12.2-0.00764-1.2-0.0153-2.4-0.0232-3.64 0.0652-10.3 0.0652-10.3 3.4-15 4.06-2.68 8.47-3.97 13.3-4.06 10.4 4.12 15.7 19.7 20.4 29 0.924 1.8 1.85 3.59 2.78 5.39 0.917 1.78 1.83 3.56 2.75 5.34 2.79 5.39 5.62 10.7 8.46 16.1 2.14 4.05 4.2 8.11 6.2 12.2 3.03 6.13 6.48 12 9.95 17.9 3.41 5.8 6.53 11.7 9.48 17.7 1.5 2.5 1.5 2.5 4.02 3.9 2.66 0.72 2.66 0.72 5.21-0.562 2.76-2.25 4.18-4.32 5.97-7.4 0.689-1.17 1.38-2.34 2.07-3.51 0.561-0.965 0.561-0.965 1.13-1.95 1.35-2.3 2.74-4.57 4.14-6.85 5.83-9.52 11.2-19.1 16.1-29.1 2.02-4.09 4.12-8.14 6.23-12.2 0.404-0.786 0.809-1.57 1.23-2.38 1.85-3.54 3.74-6.86 6.14-10.1 2.85-3.86 4.56-8.02 6.38-12.4 4.08-9.5 7.93-17.5 17.9-21.9 3.55-0.313 6.61 0.132 10.1 0.812z" fill="#184F67"/>
<path transform="translate(413,1045)" d="m0 0c3.07 2.62 4.45 5.64 6.19 9.25 4.11 8.42 8.39 16.7 12.7 25.1 0.352 0.681 0.704 1.36 1.07 2.06 4.41 8.53 8.84 17 13.3 25.5 4.28 8.1 8.48 16.2 12.7 24.4 3.1 5.99 6.22 12 9.42 17.9 3.03 5.64 5.92 11.3 8.75 17.1 2.4 4.86 5.02 9.56 7.84 14.2 1.33 3.27 1.2 6.03 1.03 9.53-3.25 0.145-6.5 0.234-9.75 0.312-0.92 0.0419-1.84 0.0838-2.79 0.127-6.79 0.123-6.79 0.123-9.93-2.51-1.73-3.29-3.1-6.62-4.35-10.1-2.99-7.91-6.75-16.2-14.2-20.8-2.34-0.149-2.34-0.149-4.84 0.306-6.95 0.845-13.8 0.819-20.8 0.791-1.37-0.00187-2.75-0.00329-4.12-0.00429-3.58-0.00378-7.16-0.0136-10.7-0.0247-3.67-0.0103-7.33-0.0148-11-0.0198-7.17-0.0107-14.3-0.0277-21.5-0.0488-0.303 0.765-0.607 1.53-0.919 2.32-2.17 5.37-4.66 10.6-7.08 15.9-0.547 1.2-1.09 2.4-1.66 3.64-0.526 1.14-1.05 2.29-1.59 3.47-0.719 1.57-0.719 1.57-1.45 3.17-1.3 2.53-1.3 2.53-3.3 4.53-2.67 0.226-5.2 0.324-7.88 0.312-0.721 0.0161-1.44 0.0322-2.18 0.0488-4.27 0.00393-6.86-0.304-9.94-3.36 0.547-4.56 2.36-7.36 4.94-11.1 3.7-5.53 6.91-11.2 9.94-17.1 3.32-6.48 6.87-12.7 10.8-18.9 3.94-6.3 7.32-12.7 10.4-19.4 2.43-5.35 5.05-10.6 7.79-15.8 0.42-0.795 0.84-1.59 1.27-2.41 2.13-4.01 4.3-7.99 6.54-11.9 4.21-7.46 8.25-14.9 11.8-22.7 0.291-0.635 0.582-1.27 0.882-1.92 1.44-3.15 2.86-6.32 4.26-9.49 0.517-1.15 1.03-2.3 1.57-3.49 0.454-1.03 0.907-2.06 1.37-3.12 1.53-2.69 2.87-3.96 5.47-5.59z" fill="#43B3C8"/>
<path transform="translate(1085 1047)" d="m0 0c0.764-0.0374 1.53-0.0748 2.32-0.113 2.12 0.426 2.12 0.426 3.89 1.9 1.83 3.74 1.55 7.18 1.42 11.3-0.0345 1.47-0.0679 2.94-0.1 4.42-0.0288 1.27-0.0575 2.53-0.0872 3.83-15.5 0.873-31.1 1.16-46.6 1.13-3.69-0.00547-7.39 3.89e-5 -11.1 0.00635-2.35-6.59e-4 -4.71-0.00194-7.06-0.00391-1.65 0.00304-1.65 0.00304-3.34 0.00613-1.01-0.00315-2.02-0.0063-3.06-0.00955-0.889-7.96e-4 -1.78-0.00159-2.69-0.00241-2.14-0.127-2.14-0.127-4.14-1.13-2.66-0.151-5.28-0.231-7.94-0.25-0.729-0.0206-1.46-0.0412-2.21-0.0625-4.1-0.0382-4.1-0.0382-7.81 1.49-3.91 6.83-2.07 18.2-1.79 25.8 0.0392 1.36 0.0392 1.36 0.0791 2.75 0.229 4.85 0.543 8.31 3.67 12.2 2.02 2.06 2.02 2.06 5 3 2-0.0792 2-0.0792 4.23-0.419 6.99-0.795 14-0.745 21-0.749 1.45-0.00322 2.91-0.00659 4.36-0.0101 3.03-0.00595 6.05-0.00784 9.08-0.00725 3.87 1.02e-4 7.74-0.0136 11.6-0.0308 2.99-0.0111 5.99-0.0131 8.98-0.0126 1.43-0.00118 2.86-0.00558 4.28-0.0133 1.99-0.00982 3.99-0.00565 5.98-8.95e-4 1.13-0.00143 2.26-0.00285 3.43-0.00432 3.1 0.252 5.28 0.828 8.04 2.25 1.38 2.76 1.1 5.05 1.06 8.12-0.00902 1.1-0.018 2.19-0.0273 3.32-0.0116 0.843-0.0232 1.69-0.0352 2.55-30 0.737-60 1.15-90 1-0.218 5.32-0.414 10.6-0.592 16-0.0633 1.81-0.132 3.62-0.207 5.43-0.107 2.6-0.193 5.21-0.275 7.81-0.056 1.21-0.056 1.21-0.113 2.44-0.124 4.65 0.122 7.61 3.19 11.4 2.64 2.72 4.02 3 7.88 3.34 1.6-4.45e-4 3.19-0.0175 4.79-0.0476 0.874-0.00438 1.75-0.00876 2.65-0.0133 1.89-0.0114 3.79-0.0297 5.68-0.0542 3-0.0383 5.99-0.0578 8.99-0.0724 6.36-0.0343 12.7-0.092 19.1-0.153 7.37-0.0707 14.7-0.132 22.1-0.168 2.96-0.0195 5.91-0.057 8.87-0.0951 1.81-0.0109 3.61-0.021 5.42-0.03 0.824-0.0155 1.65-0.031 2.5-0.047 5.52-0.00155 5.52-0.00155 7.76 1.47 1.85 2.71 1.57 4.82 1.46 8.05-0.0406 1.63-0.0406 1.63-0.082 3.29-0.0348 0.831-0.0696 1.66-0.105 2.52-15.4 0.0233-30.7 0.041-46.1 0.0518-7.13 0.00516-14.3 0.0122-21.4 0.0236-6.87 0.011-13.7 0.0168-20.6 0.0194-2.63 0.00185-5.26 0.00547-7.88 0.0109-3.67 0.00722-7.34 0.00826-11 0.0078-1.1 0.0036-2.19 0.00719-3.32 0.0109-0.996-0.00137-1.99-0.00275-3.02-0.00417-0.868 9.22e-4 -1.74 0.00184-2.63 0.00279-2.09-0.123-2.09-0.123-4.09-1.12 0.0313-0.569 0.0625-1.14 0.0948-1.72 0.888-17.2 0.954-34.3 0.862-51.5-0.0105-2.29-0.0208-4.58-0.031-6.87-0.0446-9.49-0.0933-19-0.173-28.5-0.0485-5.87-0.0775-11.7-0.0937-17.6-0.00986-2.22-0.027-4.44-0.0518-6.66-0.0338-3.08-0.0426-6.16-0.0459-9.25-0.016-0.903-0.0319-1.81-0.0483-2.74 0.0282-5.88 0.999-9.37 4.49-14.2 5.7-2.69 11.4-2.02 17.5-1.62 13.2 0.674 26.4 0.747 39.6 0.75 1.01 0.00232 2.01 0.00463 3.05 0.00702 9.87 0.0203 19.7-0.0165 29.6-0.577 0.689-0.0387 1.38-0.0775 2.09-0.117 4.69-0.305 9.11-1.6 13.8-1.75z" fill="#174E66"/>
<path transform="translate(1031,794)" d="m0 0c3.63 3.49 6.75 7.1 9.81 11.1 0.433 0.568 0.866 1.14 1.31 1.72 2.7 3.55 5.33 7.15 7.94 10.8 3.36 4.66 6.94 9.09 10.6 13.5 2.82 3.46 5.54 6.98 8.25 10.5 2.47 3.24 4.96 6.46 7.48 9.66 5.81 7.41 11.5 14.8 16.9 22.5 3.57 5.05 7.41 9.85 11.3 14.7 3.84 4.75 7.53 9.59 11.2 14.5 2.44 3.27 4.92 6.5 7.41 9.73 0.835 1.08 1.67 2.17 2.5 3.25 1.42 1.84 2.84 3.69 4.27 5.52 0.548 0.713 1.1 1.43 1.66 2.16 0.7 0.903 0.7 0.903 1.41 1.82 0.961 1.49 0.961 1.49 0.961 3.49-10.3 0.0696-20.7 0.123-31 0.155-4.8 0.0156-9.59 0.0369-14.4 0.0709-4.63 0.0326-9.26 0.0505-13.9 0.0583-1.76 0.00554-3.53 0.0163-5.29 0.0326-2.48 0.0218-4.95 0.0248-7.43 0.0234-0.726 0.0108-1.45 0.0216-2.2 0.0327-5.61-0.034-9.61-1.4-13.8-5.14-4.96-5.74-9.38-11.8-13.7-18-2.01-2.83-4.1-5.55-6.3-8.23 1.15-2.47 2.05-4.05 4-6v2h2c1.98-14 1.98-14 0.082-27.7-1.97-6.1-2.26-12.6-2.94-18.9-0.18-1.57-0.18-1.57-0.363-3.18-0.102-0.957-0.205-1.91-0.311-2.9-0.283-2.52-0.283-2.52-2.47-4.33-0.99 0.495-0.99 0.495-2 1-1.74-5.89-3.02-11.9-2-18 1.54-1.66 1.54-1.66 3-3-0.301-2.26-0.301-2.26-1-5-0.101-3-0.0589-6 0-9 1.65-0.66 3.3-1.32 5-2v-2c-1.32 0.33-2.64 0.66-4 1v-2h4c0.66-1.32 1.32-2.64 2-4z" fill="#0F3545"/>
<path transform="translate(1432,1049)" d="m0 0c1.31 2.63 1.12 4.57 1.12 7.52 0.00206 1.76 0.00206 1.76 0.00417 3.55-0.0036 1.29-0.00719 2.59-0.0109 3.92-2.82e-4 1.37-1.24e-4 2.74 4.43e-4 4.11 2.88e-4 3.72-0.0056 7.45-0.0126 11.2-0.00624 3.89-0.00684 7.78-0.00803 11.7-0.00311 7.37-0.0113 14.7-0.0213 22.1-0.0112 8.39-0.0167 16.8-0.0217 25.2-0.0105 17.3-0.0281 34.5-0.0503 51.8-3.24 0.673-6.25 1.16-9.56 1.19-0.744 0.0142-1.49 0.0284-2.25 0.043-2.45-0.259-4.02-1.09-6.18-2.23-0.00547-0.938-0.00547-0.938-0.011-1.9-0.0419-6.52-0.111-13-0.196-19.6-0.0282-2.43-0.0494-4.87-0.0635-7.3-0.0214-3.5-0.0681-7-0.12-10.5-0.00123-1.08-0.00246-2.17-0.00372-3.29-0.0197-1.02-0.0394-2.04-0.0598-3.09-0.00888-0.893-0.0178-1.79-0.0269-2.71-0.738-3.78-1.91-5.81-4.52-8.66-3.04-0.593-5.29-0.774-8.33-0.697-0.838-0.00248-1.68-0.00496-2.54-0.00752-2.77-9.18e-4 -5.53 0.0409-8.3 0.0835-1.92 0.00865-3.84 0.0148-5.76 0.0185-5.05 0.0172-10.1 0.0714-15.2 0.132-4.13 0.0436-8.27 0.0612-12.4 0.0773-4.91 0.0196-9.83 0.0502-14.7 0.0844-0.944 0.00643-1.89 0.0129-2.86 0.0195-2.66 0.0209-5.31 0.0492-7.97 0.0804-1.19 0.00875-1.19 0.00875-2.41 0.0177-3.57-0.277-3.57-0.277-6.54 1.19-0.123 1.78-0.178 3.56-0.205 5.35-0.0199 1.14-0.0399 2.28-0.0604 3.46-0.0251 1.86-0.0251 1.86-0.0506 3.76-0.0208 1.26-0.0416 2.53-0.063 3.83-0.0545 3.37-0.105 6.73-0.153 10.1-0.0502 3.43-0.106 6.86-0.161 10.3-0.107 6.74-0.209 13.5-0.307 20.2-2.23 0.223-4.46 0.428-6.69 0.625-1.24 0.116-2.48 0.232-3.76 0.352-3.54 0.0234-5.56-0.0809-8.55-1.98-1.57-4.14-1.14-8.78-1.13-13.2-0.00175-0.811-0.0035-1.62-0.00531-2.46-0.0044-2.69-0.00148-5.37 0.00189-8.06-6.75e-4 -1.89-0.00165-3.79-0.0029-5.68-0.00148-3.99 6.69e-4 -7.97 0.00534-12 0.0056-5.02 0.00239-10-0.00345-15.1-0.0209-21.2 0.149-42.4 1.05-63.6 0.111-3.91 0.0364-7.81-0.0814-11.7 0.248-3.38 1.68-5.07 4.17-7.26 2.45-1.23 4.2-1.2 6.94-1.25 1.31-0.0387 1.31-0.0387 2.65-0.0781 2.41 0.328 2.41 0.328 4.04 1.5 1.89 2.51 1.74 4.2 1.74 7.33 0.00688 1.13 0.0138 2.26 0.0209 3.42-0.00616 1.22-0.0123 2.44-0.0187 3.69 0.0174 2.57 0.035 5.14 0.0527 7.71 0.0131 4.06 0.0137 8.12 0.012 12.2-6.09e-5 3.91 0.0309 7.82 0.0603 11.7-0.00818 1.22-0.0164 2.43-0.0248 3.69 0.0151 1.7 0.0151 1.7 0.0304 3.43-1.66e-4 0.995-3.32e-4 1.99-5.04e-4 3.01 0.635 3.34 1.9 4.5 4.5 6.62 3.08 1.54 6.32 1.16 9.71 1.16 0.795 0.00496 1.59 0.00993 2.41 0.015 2.64 0.0146 5.27 0.0214 7.91 0.0269 1.83 0.00575 3.66 0.0115 5.49 0.0173 3.84 0.0105 7.67 0.0164 11.5 0.0198 4.92 0.00549 9.84 0.0295 14.8 0.058 3.78 0.0186 7.55 0.0238 11.3 0.0254 1.81 0.00303 3.63 0.0111 5.44 0.0242 2.54 0.017 5.07 0.0152 7.61 0.00869 1.13 0.0138 1.13 0.0138 2.28 0.0279 2.89-0.0233 5.03-0.0564 7.52-1.61 1.34-2.28 1.43-3.84 1.47-6.48 0.0198-0.955 0.0396-1.91 0.06-2.89 0.00639-1.03 0.0128-2.06 0.0194-3.12 0.0269-1.6 0.0269-1.6 0.0544-3.23 0.0542-3.41 0.088-6.82 0.121-10.2 0.0332-2.28 0.0677-4.56 0.104-6.84 0.063-4.21 0.12-8.41 0.165-12.6 0.0101-0.915 0.0202-1.83 0.0306-2.77 0.0125-2.37-0.018-4.74-0.0536-7.12 0.0751-3.88 0.563-5.53 3.07-8.47 4.44-3 9.22-1.78 14 0z" fill="#0F3545"/>
<path transform="translate(581,409)" d="m0 0c12.9-0.0232 25.8-0.041 38.6-0.0518 5.98-0.00521 12-0.0123 17.9-0.0236 5.78-0.0109 11.6-0.0169 17.3-0.0194 2.2-0.00184 4.4-0.00544 6.6-0.0109 3.09-0.00729 6.18-0.00826 9.27-0.0078 0.903-0.0036 1.81-0.00719 2.74-0.0109 5.56 0.00896 10.9 0.42 16.5 1.12v1c-2.31 0.33-4.62 0.66-7 1 0.186 0.763 0.371 1.53 0.562 2.31 0.438 2.69 0.438 2.69-0.562 5.69h3v4c4.14 1.4 8.25 2.79 12.5 3.98 1.17 0.335 2.34 0.67 3.54 1.02 1.11 0.309 2.23 0.619 3.38 0.938 0.866 0.351 1.73 0.701 2.62 1.06 1.28 3.83 0.527 5.33-1 9-1.5 1.88-1.5 1.88-3 3h-2c0.33 0.516 0.66 1.03 1 1.56 1.32 3.22 1.13 5.99 1 9.44-0.99 0.33-1.98 0.66-3 1v8c-6.11 2.1-11.8 2.44-18.3 2.62-1.78 0.0566-1.78 0.0566-3.6 0.114-20.2 0.548-40.3 0.374-60.5 0.333-5.73-0.0104-11.5-0.0148-17.2-0.0198-11.2-0.0106-22.3-0.0276-33.5-0.0488v-4c0.99 0.33 1.98 0.66 3 1 2.45-4.58 3.6-8.45 4.39-13.5 0.877-5.3 1.64-7.74 5.61-11.5 1.22-2.94 2.14-5.94 3-9h2c0.33-3.96 0.66-7.92 1-12h-2c-3.02-2.3-3.37-4.36-4-8z" fill="#2395B4"/>
<path transform="translate(876,724)" d="m0 0c4.03 3.67 6.97 7.99 10.1 12.4 0.529 0.751 1.06 1.5 1.6 2.28 1.46 2.08 2.9 4.18 4.33 6.29 0.597 0.857 1.19 1.71 1.81 2.6 2.97 6 2.36 13.3 2.41 19.9 0.0115 1.03 0.023 2.06 0.0349 3.13 0.0366 3.4 0.0663 6.81 0.0955 10.2 0.0231 2.39 0.0465 4.77 0.0702 7.16 0.0484 5.01 0.0933 10 0.136 15 0.0544 6.36 0.118 12.7 0.185 19.1 0.0506 4.93 0.0955 9.87 0.139 14.8 0.0213 2.34 0.0444 4.68 0.0695 7.03 0.14 13.4-0.043 26.7-0.838 40-0.248 4.46-0.341 8.93-0.43 13.4-0.0208 0.926-0.0416 1.85-0.063 2.81-0.0636 2.86-0.123 5.72-0.183 8.58-0.0434 1.98-0.087 3.96-0.131 5.94-0.105 4.77-0.207 9.54-0.307 14.3-4.42 0.171-8.85 0.331-13.3 0.482-1.5 0.0526-3 0.108-4.49 0.166-10.2 0.392-20.1 0.242-30.2-0.648 1.17-2.46 2.25-4.31 4-6.44 1.94-2.48 2.99-4.6 4-7.56h2c0.9-5.29 1.05-10.3 0.938-15.6-0.109-11.4 0.284-21 7.25-30.3 2-3.38 2.18-5.21 1.81-9.06h-2c-1.4-2.81-1.25-4.89-1-8 0.993-1.34 1.99-2.67 3-4 0.878-3.88 1.05-6.7 0.375-10.6-0.44-3.96 0.184-5.3 2.62-8.38 0.99-0.495 0.99-0.495 2-1-0.142-2.21-0.289-4.42-0.438-6.62-0.0812-1.23-0.162-2.46-0.246-3.73-0.26-3.61-0.26-3.61-0.898-6.98-0.418-2.66-0.418-2.66 0.332-4.66 0.527-2.39 0.527-2.39-2.06-5.25-0.887-0.908-1.77-1.82-2.69-2.75h-2c-1.03-3.3-1.01-6.01-0.688-9.44 0.118-1.39 0.118-1.39 0.238-2.81 0.46-2.82 1.29-5.15 2.45-7.75-1.32-0.66-2.64-1.32-4-2-0.125-2.38-0.125-2.38 0-5 0.66-0.66 1.32-1.32 2-2 0.0221-2.68 0.0221-2.68-0.375-5.62-0.111-1-0.222-2.01-0.336-3.04-0.0954-0.771-0.191-1.54-0.289-2.34h1c0.11-1.19 0.219-2.39 0.332-3.62 0.796-8.15 1.55-15.7 4.67-23.4 0.66 0.33 1.32 0.66 2 1v4c0.193-0.699 0.387-1.4 0.586-2.12 0.26-0.91 0.521-1.82 0.789-2.76 0.255-0.905 0.51-1.81 0.773-2.74 0.852-2.38 0.852-2.38 2.85-4.38z" fill="#1B6885"/>
<path transform="translate(388 408)" d="m0 0c0.785 0.00851 1.57 0.017 2.38 0.0258 2.58 0.0309 5.16 0.0767 7.74 0.123 1.79 0.0238 3.57 0.0469 5.36 0.0693 4.59 0.0623 9.19 0.149 13.8 0.248 1.89 0.039 3.79 0.0737 5.68 0.104 2.78 0.0454 5.56 0.103 8.33 0.164 0.847 0.0116 1.69 0.0231 2.57 0.035 3.91 0.0993 5.96 0.164 9.28 2.38 1.06 2.43 1.06 2.43 2 5.31 0.977 2.98 1.89 5.51 3.55 8.18 4.14 7.19 3.58 17.1 3.98 25.2 0.336 5.85 1.26 11.5 2.31 17.3 1.18 6.64 1.83 13.3 2.24 20 0.414 5.21 1.71 9.02 3.98 13.7 1.57 3.84 1.86 7.73 2.18 11.8 0.116 1.23 0.116 1.23 0.234 2.48 0.186 1.99 0.353 3.97 0.516 5.96 0.66-0.33 1.32-0.66 2-1v2h3c-0.115 2.04-0.243 4.08-0.375 6.12-0.0696 1.14-0.139 2.27-0.211 3.45-0.409 3.38-1.22 6.25-2.41 9.43-5.62 1.12-5.62 1.12-9 0v-2c-0.599-0.256-1.2-0.512-1.82-0.776-6.28-3.52-9.8-11.8-13.2-17.9-4.61-8.14-9.63-15.9-14.9-23.7-3.54-5.23-6.96-10.5-10.3-15.9-3.4-5.54-7.02-10.9-10.8-16.1-4.72-6.56-9.02-13.3-13.2-20.2-2.64-4.39-5.34-8.7-8.19-13-0.624-0.933-1.25-1.87-1.89-2.83-1.19-1.72-2.4-3.42-3.66-5.09-2.77-3.79-4.11-5.65-4.27-10.5 1.12-3.06 1.12-3.06 2.7-4.24 3.43-1.16 6.73-1.04 10.3-0.966z" fill="#1B6986"/>
<path transform="translate(1253 1058)" d="m0 0c0.676 0.367 1.35 0.735 2.05 1.11 3.94 2.26 6.94 4.4 9.33 8.39 0.0231 3.91-2.74 6.48-5.19 9.31-0.757 0.904-1.51 1.81-2.29 2.74-2.52 1.95-2.52 1.95-5.57 1.97-3.24-1.12-4.66-2.25-7.02-4.71-11.5-10.9-27.4-13.7-42.7-13.5-14.8 0.93-28.7 6.76-39.4 17.1-11.6 13.2-14.7 28.9-14 45.8 0.93 12.5 7.83 25.3 16.2 34.3 2.13 1.67 4.19 3.2 6.44 4.69 0.547 0.377 1.09 0.754 1.66 1.14 5.79 3.92 10.7 6.41 17.7 7.29 6.08 0.792 6.08 0.792 8.25 1.88 4.33 0.274 8.66 0.232 13 0.25 1.19 0.0206 2.39 0.0412 3.62 0.0625 10.6 0.0465 18.6-1.47 27.2-7.81 10.2-7.48 10.2-7.48 14.2-7.56 4.28 1.52 5.56 3.22 8 7.06 0.25 2.5 0.25 2.5-1 5-11.5 13.1-31.3 18.8-48 20-24.9 1.17-44.9-3.39-64.8-18.8-0.932-0.72-0.932-0.72-1.88-1.46-1.5-1.19-2.94-2.46-4.37-3.73v-2h-2c-5.54-7.06-8.29-15.6-11-24-0.322-0.882-0.645-1.76-0.977-2.67-6.34-19.1-0.535-39.3 8.06-56.6 2.15-4.04 4.77-7.42 7.91-10.7 0.62-0.66 1.24-1.32 1.88-2 27.7-26.9 71.8-30.4 105-12.5z" fill="#0F3545"/>
<path transform="translate(635,713)" d="m0 0c3.37 0.547 5.08 1.05 8 3v2c0.931 1.37 1.92 2.7 2.94 4 3.93 5.06 4.61 8.56 4.06 15-0.657 3.08-1.45 6.1-2.26 9.14-1.7 6.54-2.01 11.5 0.258 17.9h2c1.01 10.2 1.01 10.2 0.938 14.6-0.213 2.62-0.213 2.62 2.06 4.44 0.414 2.06 0.414 2.06 0.625 4.44 0.0748 0.782 0.15 1.56 0.227 2.37 0.353 5.2-1.19 7.27-4.35 11.2-0.932 1.18-1.86 2.37-2.79 3.55-0.463 0.587-0.927 1.17-1.4 1.78-3.75 4.8-7.25 9.81-10.8 14.8-12.9 17.9-12.9 17.9-18.5 24.9-2.81-0.125-2.81-0.125-6-1-2.43-3.65-3-5.58-3-10h-2c-0.0258-0.69-0.0516-1.38-0.0781-2.09-0.364-6.03-1.29-10.6-4.18-15.9-0.902-2.4-0.582-3.6 0.258-5.97-1.49-0.495-1.49-0.495-3-1-0.33-0.99-0.66-1.98-1-3-0.66-0.33-1.32-0.66-2-1-0.921-1.74-1.77-3.52-2.56-5.31-0.434-0.966-0.869-1.93-1.32-2.93-0.92-2.27-1.62-4.38-2.12-6.76h-3v-3h-2v-2c-1.98 0.495-1.98 0.495-4 1 0.615-3.6 2.09-5.74 4.32-8.6 0.678-0.878 1.36-1.76 2.05-2.66 0.724-0.925 1.45-1.85 2.19-2.8 1.48-1.91 2.95-3.82 4.43-5.73 0.704-0.909 1.41-1.82 2.13-2.76 2.08-2.72 4.09-5.47 6.06-8.26 4.75-6.6 9.97-12.8 15.1-19.1 2.75-3.36 5.47-6.75 8.19-10.1 0.48-0.595 0.96-1.19 1.45-1.8 3.16-3.95 6.14-8 9.05-12.1z" fill="#184F67"/>
<path transform="translate(591,518)" d="m0 0c13.4-0.0232 26.9-0.0409 40.3-0.0518 6.24-0.00522 12.5-0.0123 18.7-0.0236 6.02-0.0109 12-0.0168 18.1-0.0194 2.3-0.00185 4.59-0.00545 6.89-0.0109 3.22-0.00727 6.44-0.00826 9.66-0.0078 0.947-0.0036 1.89-0.00719 2.87-0.0109 4.93 0.00767 9.61 0.284 14.5 1.12v2c-0.639 0.124-1.28 0.247-1.94 0.375-0.681 0.206-1.36 0.413-2.06 0.625-0.33 0.66-0.66 1.32-1 2-0.99-0.495-0.99-0.495-2-1-0.0374 0.82-0.0748 1.64-0.113 2.48-0.0657 1.08-0.131 2.16-0.199 3.27-0.058 1.07-0.116 2.13-0.176 3.23-0.555 3.27-1.54 4.45-3.51 7.02-0.25 2.3-0.25 2.3 0 4.62 0.188 2.35 0.188 2.35 0 4.38-0.99 0.66-1.98 1.32-3 2 0.165 0.763 0.33 1.53 0.5 2.31 0.5 2.69 0.5 2.69 0.5 5.69 1.65 0.66 3.3 1.32 5 2-0.165 0.763-0.33 1.53-0.5 2.31-0.745 4-0.819 5.21 1.5 8.69-0.375 3.19-0.375 3.19-1 6h-3c-0.495 0.99-0.495 0.99-1 2-0.837-0.338-1.67-0.675-2.54-1.02-8.75-3.35-17.1-5.2-26.5-5.98-0.99-0.0869-1.98-0.174-3-0.263-6.42-0.517-12.8-0.798-19.2-0.807-2.09-0.0148-4.19-0.0313-6.28-0.0479-1.43-0.00462-2.86 0.00184-4.29 0.0186-12 0.119-12 0.119-15-2.41-1.09-1.86-1.09-1.86-2.19-5.49-0.33-0.99-0.66-1.98-1-3-0.887-0.0619-1.77-0.124-2.69-0.188-4.3-1.06-5.73-2.2-8.31-5.81-0.397-2.42-0.508-4.79-0.629-7.24-0.673-5-3.17-9.27-5.37-13.8-1.67-4.22-2.22-7.46-2-12 0.66-0.33 1.32-0.66 2-1l-2-2z" fill="#1C6985"/>
<path transform="translate(736,531)" d="m0 0c1.01 0.642 2.01 1.28 3.05 1.95 9 6.02 16.4 12.6 21.9 22.1v2h2c1.3 2.54 2.59 5.08 3.88 7.62 0.547 1.07 0.547 1.07 1.11 2.16 5.55 11 5.55 11 5.02 17.2-1 1-1 1-4 1.38-4.54 0.576-8.71 2.08-13 3.62 0.495 2.46 0.495 2.46 2 5 2.31 1.05 4.64 2.06 7 3 0.33 0.99 0.66 1.98 1 3-3.81 1.78-6.68 2.2-10.9 2.06-3.22-0.0967-6.13-0.0615-9.32 0.431-3.96 0.528-7.83 0.651-11.8 0.639-0.738 9.57e-4 -1.48 0.00191-2.24 0.0029-1.55 6.76e-4 -3.09-0.00114-4.64-0.00534-2.37-0.00539-4.73-1.94e-5 -7.1 0.00635-1.51-6.6e-4 -3.02-0.00194-4.52-0.00391-0.706 0.00202-1.41 0.00405-2.14 0.00613-3.06-0.0147-5.42-0.163-8.34-1.14-1.18-2.44-1.18-2.44-2.31-5.56-2.64-6.68-5.62-12.4-11.7-16.4v-3h3c0.0743-3.34 0.0655-5.8-1-9-0.66-0.33-1.32-0.66-2-1 0.66-0.99 1.32-1.98 2-3v-4c-1.65-0.66-3.3-1.32-5-2 0.0206-1.11 0.0412-2.23 0.0625-3.38 0.201-3.46 0.201-3.46-1.06-5.62h2c-0.0412-1.24-0.0825-2.48-0.125-3.75 0-4.58 0.856-6.98 4.12-10.2 0.627-3.1 1.02-6.21 1.44-9.35 0.278-1.31 0.278-1.31 0.562-2.65 0.66-0.33 1.32-0.66 2-1v-1c12.4-3.11 28.6 3.25 39 10z" fill="#2295B4"/>
<path transform="translate(829 1048)" d="m0 0c1.68-0.0081 1.68-0.0081 3.39-0.0164 3.69-0.0125 7.38 0.00401 11.1 0.022 2.56-1.55e-4 5.13-0.00164 7.69-0.00441 5.37-0.00138 10.7 0.0108 16.1 0.034 6.21 0.0266 12.4 0.0283 18.6 0.0166 5.98-0.0108 12-0.00449 17.9 0.00956 2.54 0.00452 5.09 0.00484 7.63 9.35e-4 3.55-0.0029 7.1 0.0135 10.6 0.0354 1.59-0.00675 1.59-0.00675 3.2-0.0136 0.965 0.0099 1.93 0.0198 2.92 0.03 1.26 0.00364 1.26 0.00364 2.54 0.00736 2.64 0.467 3.51 1.3 5.15 3.38 2.17 5.33 1.09 11.6 0 17-16.5 0.33-33 0.66-50 1-1.76 4.4-2.24 5.99-2.12 10.4 0.0234 1.07 0.0467 2.14 0.0708 3.25 0.0354 1.16 0.0708 2.32 0.107 3.52 0.0575 2.54 0.115 5.08 0.172 7.61 0.034 1.35 0.0683 2.7 0.103 4.05 0.178 7 0.315 14 0.44 21 0.0128 0.711 0.0257 1.42 0.0389 2.16 0.263 15.1 0.0897 30.2-0.25 45.4-0.0388 1.74-0.0388 1.74-0.0784 3.51-0.146 6.37-0.307 12.7-0.484 19.1-2.94 0.0539-5.87 0.0936-8.81 0.125-0.833 0.0168-1.67 0.0335-2.53 0.0508-0.802 0.00645-1.6 0.0129-2.43 0.0195-0.738 0.0105-1.48 0.0209-2.24 0.0317-1.99-0.227-1.99-0.227-4.99-2.23-0.293-4.62-0.0145-8.97 0.503-13.6 0.813-8.82 0.682-17.7 0.7-26.5 0.00283-0.952 0.00565-1.9 0.00857-2.88 0.0149-5.03 0.0242-10.1 0.0285-15.1 0.00551-5.18 0.0296-10.4 0.058-15.5 0.0186-4 0.0238-8 0.0254-12 0.00302-1.91 0.011-3.82 0.0242-5.73 0.0171-2.67 0.0152-5.34 0.00869-8 0.00921-0.78 0.0184-1.56 0.0279-2.36-0.0492-6.48-1.75-10.9-5.38-16.3-2.66-0.255-5.09-0.324-7.75-0.258-0.775 0.00662-1.55 0.0132-2.35 0.0201-2.49 0.0234-4.97 0.0671-7.46 0.113-2.46 0.0353-4.92 0.0662-7.39 0.0913-1.53 0.0167-3.06 0.0396-4.59 0.07-13.8 0.188-13.8 0.188-18.6-3.29-1.88-2.75-1.88-2.75-1.88-5.19 4.3-11 8.64-13.2 20.1-13.1z" fill="#2295B4"/>
<path transform="translate(549,1048)" d="m0 0c8.46 6.56 13 18.6 17.8 27.9 0.924 1.8 1.85 3.59 2.78 5.39 0.917 1.78 1.83 3.56 2.75 5.34 2.79 5.39 5.62 10.7 8.46 16.1 2.14 4.05 4.2 8.11 6.2 12.2 3.1 6.28 6.64 12.3 10.2 18.3 7.33 12.5 7.33 12.5 6.87 17.7-3.82 1.42-6.91 2.24-11 2v2c0.66 0.33 1.32 0.66 2 1-2.97 0.99-2.97 0.99-6 2-0.568-0.967-1.14-1.93-1.72-2.93-5.13-8.69-5.13-8.69-10.8-17-2.94-4.08-5.14-8.3-7.31-12.8-2.68-5.54-5.55-10.8-8.88-16-0.365-0.572-0.729-1.14-1.1-1.73-2.09-3.19-4.25-6.01-7.15-8.52h-2c0.00222 1.08 0.00444 2.16 0.00673 3.28 0.0203 10.2 0.0353 20.4 0.0451 30.5 0.00522 5.23 0.0123 10.5 0.0236 15.7 0.0109 5.05 0.0168 10.1 0.0194 15.2 0.00185 1.93 0.00546 3.86 0.0109 5.78 0.00725 2.7 0.00826 5.4 0.0078 8.09 0.0036 0.799 0.00719 1.6 0.0109 2.42-0.00655 3.51-0.18 6.64-1.12 10-3.88 0.953-7.21 1.02-11.2 0.688-1.05-0.0786-2.09-0.157-3.17-0.238-2.64-0.449-2.64-0.449-4.64-2.45-0.254-2.28-0.254-2.28-0.261-5.17-0.00708-1.1-0.0142-2.19-0.0215-3.32 0.00248-1.21 0.00495-2.42 0.00751-3.66-0.00511-1.27-0.0102-2.54-0.0155-3.84-0.0134-3.49-0.014-6.97-0.0114-10.5 0.00107-2.91-0.00381-5.82-0.00861-8.73-0.0111-6.87-0.0115-13.7-0.00549-20.6 0.00603-7.08-0.00625-14.2-0.0276-21.2-0.0176-6.08-0.0236-12.2-0.0204-18.2 0.00181-3.63-8.12e-4 -7.26-0.0147-10.9-0.0149-4.05-0.0056-8.11 0.00601-12.2-0.00764-1.2-0.0153-2.4-0.0232-3.64 0.0652-10.3 0.0652-10.3 3.4-15 4.77-3.14 10.5-5.17 16-3z" fill="#1C7F9F"/>
<path transform="translate(682,653)" d="m0 0c4.63 0.612 4.63 0.612 7 2 2.12 3.81 3 7.67 3 12h2c2.15 3.23 2.2 4.28 2 8h-2c0.143 0.888 0.143 0.888 0.289 1.79 0.111 0.79 0.222 1.58 0.336 2.39 0.116 0.777 0.232 1.55 0.352 2.36 0.028 2.93-0.88 4.75-1.98 7.46-0.281 2.26-0.487 4.54-0.625 6.81-0.0748 1.16-0.15 2.32-0.227 3.52-0.049 0.88-0.098 1.76-0.148 2.67 0.99 0.495 0.99 0.495 2 1v6h-3v2h-2c-0.936 3.79-0.983 6.94-0.562 10.8 0.102 0.976 0.204 1.95 0.309 2.96 0.0838 0.736 0.168 1.47 0.254 2.23h2v8h2c-0.495-3.47-0.495-3.47-1-7h2v9c0.99 0.495 0.99 0.495 2 1-0.629 0.811-1.26 1.62-1.91 2.46-4.68 6.05-9.29 12.1-13.8 18.3-8.33 11.5-16.8 22.9-25.3 34.2-0.66-0.33-1.32-0.66-2-1-0.344-1.93-0.344-1.93-0.5-4.31-0.227-3.43-0.881-5.67-2.5-8.69-0.377-1.66-0.721-3.32-1-5h2c-0.33-3.3-0.66-6.6-1-10-1.49 0.495-1.49 0.495-3 1-2.45-8.07-1.57-13.9 0.562-21.9 1.64-6.43 3.03-12.1-0.188-18.1-0.784-0.969-1.57-1.94-2.38-2.94-0.494-0.708-0.987-1.42-1.5-2.14-2.11-3.05-2.11-3.05-4.5-5.86h-3c1.47-4.43 3.91-7.73 6.81-11.3 0.481-0.602 0.961-1.2 1.46-1.83 4.3-5.38 8.67-10.7 13-16 3.96-4.87 7.76-9.82 11.5-14.9 2.54-3.41 5.12-6.79 7.71-10.2 0.434-0.565 0.868-1.13 1.32-1.71 3.06-3.97 3.06-3.97 4.18-5.1z" fill="#1B6885"/>
<path transform="translate(197 1066)" d="m0 0c1.19-0.00953 2.37-0.0191 3.59-0.0289 1.29 9.11e-4 2.58 0.00182 3.91 0.00276 1.34-0.00389 2.68-0.00822 4.02-0.013 2.81-0.00747 5.63-0.00717 8.44-0.00191 3.58 0.00575 7.15-0.011 10.7-0.0343 2.77-0.0149 5.54-0.0156 8.31-0.0125 1.95-7.53e-4 3.9-0.0145 5.85-0.0287 10.6 0.0543 19.5 1.62 28.5 7.39v2h2c1.22 1.32 1.22 1.32 2.5 3.12 0.423 0.58 0.846 1.16 1.28 1.76 4.35 7.56 4.24 16.5 2.72 24.9-1.41 4.82-3.02 7.64-7.5 10.2-7.59 3.72-15.2 3.47-23.4 3.47-1.5 0.00711-3 0.0148-4.5 0.0231-3.13 0.0134-6.26 0.015-9.39 0.00916-4-0.00591-8 0.0248-12 0.0651-3.09 0.0259-6.18 0.0288-9.27 0.0251-1.47 0.00169-2.95 0.0113-4.42 0.0291-12.9 0.139-12.9 0.139-16.9-2.52-3.01-4.47-2.89-8.09-2.75-13.4 0.00375-0.987 0.00749-1.97 0.0114-2.99 0.0134-2.08 0.0412-4.16 0.0824-6.24 0.0625-3.19 0.082-6.38 0.0938-9.58 0.0183-2.02 0.0391-4.04 0.0625-6.06 0.0085-0.958 0.017-1.92 0.0258-2.9 0.0192-0.885 0.0384-1.77 0.0582-2.68 0.0137-0.78 0.0273-1.56 0.0414-2.36 0.683-4.66 4.05-4.17 7.93-4.19z" fill="#FAFDFF"/>
<path transform="translate(413,1045)" d="m0 0c3.07 2.62 4.45 5.64 6.19 9.25 4.11 8.42 8.39 16.7 12.7 25.1 0.352 0.681 0.704 1.36 1.07 2.06 4.41 8.53 8.84 17 13.3 25.5 4.28 8.1 8.48 16.2 12.7 24.4 3.1 5.99 6.22 12 9.42 17.9 3.03 5.64 5.92 11.3 8.75 17.1 2.4 4.86 5.02 9.56 7.84 14.2 1.33 3.27 1.2 6.03 1.03 9.53-3.25 0.145-6.5 0.234-9.75 0.312-1.38 0.0628-1.38 0.0628-2.79 0.127-6.79 0.123-6.79 0.123-9.93-2.51-1.73-3.29-3.1-6.62-4.35-10.1-2.94-7.77-6.71-16.5-14.2-20.8-2.26-0.107-2.26-0.107-4.69 0.375-7.81 0.986-15.5 0.22-23.3-0.375 0.424-1.94 0.865-3.88 1.31-5.81 0.244-1.08 0.487-2.16 0.738-3.27 0.951-2.92 1.62-4.02 3.95-5.92 0.66-0.66 1.32-1.32 2-2 2.66-0.565 5.29-0.738 8-1 1.94-11.2-2.99-18-8.76-27-1.7-2.76-3.1-5.64-4.49-8.57-2.36-4.86-4.95-9.55-8.75-13.4-1.49-0.495-1.49-0.495-3-1-0.433 1.21-0.433 1.21-0.875 2.44-1.12 2.56-1.12 2.56-3.12 3.56-3.96 0.906-7.97 1.45-12 2-0.33-1.65-0.66-3.3-1-5-0.99 0.495-0.99 0.495-2 1 0.548-4.86 2.11-8.66 4.38-12.9 2.59-5 5.09-10 7.46-15.1 0.483-1.04 0.966-2.07 1.46-3.14 0.955-2.06 1.9-4.11 2.84-6.18 0.443-0.947 0.886-1.89 1.34-2.87 0.389-0.846 0.778-1.69 1.18-2.56 1.48-2.43 2.98-3.66 5.34-5.2z" fill="#34A8C3"/>
<path transform="translate(914 409)" d="m0 0c1.19-0.00424 1.19-0.00424 2.4-0.00857 4.18-0.0149 8.36-0.0242 12.5-0.0285 4.31-0.00552 8.63-0.0297 12.9-0.058 3.33-0.0186 6.65-0.0238 9.98-0.0254 1.59-0.00303 3.18-0.0111 4.77-0.0242 2.22-0.017 4.43-0.0152 6.65-0.00869 1.89-0.00547 1.89-0.00547 3.82-0.011 3.06 0.367 3.06 0.367 5 1.89 0.53 0.731 0.53 0.731 1.07 1.48-2.4 6.89-5.31 12.4-10 18-1.32-0.33-2.64-0.66-4-1-0.0374 0.797-0.0748 1.59-0.113 2.41-0.555 8.94-2.3 15.2-8.89 21.6-1.23 0.856-2.49 1.69-3.75 2.5-2.9 1.93-3.17 2.23-4.19 5.81-0.0206 0.887-0.0412 1.77-0.0625 2.69-9.87 1.21-19.8 1.39-29.7 1.62-0.909 0.0228-1.82 0.0456-2.75 0.0691-13.9 0.339-27.7 0.288-41.6-0.694-1.12-4.75-1.12-4.75 0-7 1.61-0.473 3.24-0.88 4.88-1.25 4.11-1.18 4.11-1.18 7.12-4.12 1.51-5.47 2.29-11 3-16.6h3c0.33-0.99 0.66-1.98 1-3h3c1.82-1.31 1.82-1.31 3.56-3 3.23-3 3.23-3 5.44-3 0.99-0.33 1.98-0.66 3-1 0.249-1.6 0.474-3.21 0.688-4.81 0.128-0.893 0.255-1.79 0.387-2.71 0.186-2.54 0.186-2.54-1.55-4.18-0.501-0.429-1-0.859-1.52-1.3v-2c-0.99 0.33-1.98 0.66-3 1-1.73-0.0846-3.46-0.236-5.19-0.438-0.901-0.102-1.8-0.204-2.73-0.309-0.687-0.0838-1.37-0.168-2.08-0.254v-1c8.95-1.1 17.8-1.18 26.8-1.2z" fill="#1B6885"/>
<path transform="translate(842 516)" d="m0 0c6.79 0.771 13.5 0.81 20.4 0.849 1.34 0.013 2.68 0.0268 4.03 0.0414 5.65 0.061 11.3 0.116 16.9 0.149 3.48 0.0209 6.95 0.0562 10.4 0.101 1.95 0.021 3.91 0.0262 5.86 0.0312 1.78 0.0248 1.78 0.0248 3.59 0.0502 1.56 0.0121 1.56 0.0121 3.16 0.0245 3.14 0.452 4.53 1.12 6.72 3.39 0.626 5.64 0.386 7.54-3 12-3.46 8.32-4.58 16-4 25-4.78 2.1-7.81 3.34-13 2-0.99 0.66-1.98 1.32-3 2 1.31 3.12 1.31 3.12 4 5h-2c-0.33 0.99-0.66 1.98-1 3-0.33-0.66-0.66-1.32-1-2h-4v2c-4.57 0.145-9.13 0.288-13.7 0.427-1.55 0.0477-3.09 0.0961-4.64 0.146-5.22 0.166-10.4 0.308-15.7 0.427-0.711 0.0177-1.42 0.0354-2.15 0.0537-2.03 0.0462-4.06 0.0747-6.09 0.103-1.16 0.0187-2.32 0.0374-3.52 0.0566-3.47-0.228-6.07-0.762-9.24-2.21-1.74-2.75-2.25-4.9-2.27-8.12-0.00953-0.801-0.0191-1.6-0.0289-2.43 9.11e-4 -0.857 0.00182-1.71 0.00276-2.6-0.00429-0.89-0.00857-1.78-0.013-2.7-0.00574-1.88-0.00625-3.76-0.00191-5.64 0.00315-2.87-0.0203-5.74-0.0457-8.6-0.00227-1.83-0.00298-3.66-0.00195-5.49-0.00921-0.853-0.0184-1.71-0.0279-2.59 0.0383-4.97 0.432-8.63 3.39-12.8 3.56-1.83 5.99-2.18 9.92-1.64z" fill="#1B6885"/>
<path transform="translate(970,409)" d="m0 0h76c0.495 1.49 0.495 1.49 1 3-2.64 0.33-5.28 0.66-8 1 0.00902 0.739 0.018 1.48 0.0273 2.24-0.237 8.11-2.14 14.9-8.03 20.8-2.73 0.297-2.73 0.297-5 0-0.0928 0.928-0.0928 0.928-0.188 1.88-0.268 0.701-0.536 1.4-0.812 2.12-1.66 0.681-3.33 1.35-5 2-1.34 2.02-1.34 2.02-2 4h-3c0.206 1.28 0.413 2.56 0.625 3.88 0.352 2.18 0.352 2.18 0.375 4.12l-2 2c-0.33-0.99-0.66-1.98-1-3-0.66 0.99-1.32 1.98-2 3h-2c0.0412 0.928 0.0825 1.86 0.125 2.81-0.125 3.19-0.125 3.19-2.12 6.19-2.53 0.367-2.53 0.367-5.76 0.356-1.21 3e-3 -2.42 6e-3 -3.66 0.00909-1.31-0.0123-2.62-0.0247-3.97-0.0374-1.36-0.00306-2.71-0.00493-4.07-0.00568-2.84-0.00461-5.69-0.019-8.53-0.0412-3.64-0.0282-7.28-0.0392-10.9-0.0437-2.8-0.00416-5.6-0.014-8.4-0.0259-1.99-0.00846-3.99-0.015-5.98-0.0214-1.21-0.00961-2.43-0.0192-3.68-0.0291-1.07-0.00683-2.14-0.0137-3.24-0.0207-2.43-0.122-4.47-0.441-6.78-1.14-0.297-2.75-0.297-2.75 0-6 2.05-2.12 2.05-2.12 4.75-4 6.06-4.25 9.31-8.59 10.7-15.9 0.11-0.665 0.219-1.33 0.332-2.02 0.188-1.03 0.188-1.03 0.379-2.09 0.303-1.68 0.589-3.36 0.871-5.04 0.771-0.103 1.54-0.206 2.34-0.312 3.44-0.887 4.63-2.67 6.52-5.58 1.89-3.49 3.59-7.16 4.14-11.1-0.66-0.99-1.32-1.98-2-3z" fill="#174E66"/>
<path transform="translate(897,409)" d="m0 0 1 2h2v2c0.99 0.33 1.98 0.66 3 1 1.78 4.16 0.369 7.89-1 12-4.33 3-4.33 3-7 3-1.79 1.33-1.79 1.33-3.62 3-0.947 0.835-0.947 0.835-1.91 1.69-0.482 0.433-0.964 0.866-1.46 1.31-0.33-0.33-0.66-0.66-1-1-0.33 0.66-0.66 1.32-1 2h-3c0.0619 1.13 0.124 2.27 0.188 3.44 0.0109 6.1-1.82 11.5-5.19 16.6-2.38 0.73-2.38 0.73-5.12 1.19-0.91 0.159-1.82 0.317-2.76 0.48-0.699 0.11-1.4 0.219-2.12 0.332 0.186 0.577 0.371 1.15 0.562 1.75 0.481 2.47 0.115 3.86-0.562 6.25-6.01 0.0248-12 0.0429-18 0.0549-2.04 0.00502-4.09 0.0118-6.13 0.0205-2.94 0.0122-5.89 0.0178-8.83 0.0222-0.91 0.00516-1.82 0.0103-2.76 0.0156-4.53 3.98e-4 -8.78-0.186-13.2-1.11 1.49-0.495 1.49-0.495 3-1 0.33-4.62 0.66-9.24 1-14-0.66 3.63-1.32 7.26-2 11h-1c-0.0544-1.58-0.093-3.17-0.125-4.75-0.0232-0.882-0.0464-1.76-0.0703-2.67 0.204-2.69 0.83-4.28 2.2-6.58h2c0.121-0.88 0.242-1.76 0.367-2.67 0.168-1.16 0.335-2.32 0.508-3.52 0.162-1.15 0.325-2.3 0.492-3.48 0.576-3.03 1.48-5.49 2.63-8.33 0.0402-2.33 0.0432-4.67 0-7 0.33-0.99 0.66-1.98 1-3h2v-2c-0.785-0.049-1.57-0.098-2.38-0.148-8.88-0.632-8.88-0.632-13-1.85-5.77-1.59-11.7-1.69-17.6-2v-1c33-2.67 65.9-3.21 99-3z" fill="#34A8C3"/>
<path transform="translate(296,1084)" d="m0 0c0.99 0.66 1.98 1.32 3 2 0.328 1.87 0.328 1.87 0.25 4.15-0.0284 0.835-0.0569 1.67-0.0862 2.53-0.0541 0.89-0.108 1.78-0.164 2.7-0.0534 0.906-0.107 1.81-0.162 2.75-0.812 10.6-4 19.1-11.5 26.9-6.72 5.61-14.8 8.41-23.2 10.4-2.21 0.466-2.21 0.466-4.18 1.54 0.711 7.47 4.81 12 9.81 17.3 12.2 13.2 12.2 13.2 12.2 16.7 0.566 0.229 1.13 0.459 1.71 0.695 2.89 1.65 4.66 3.68 6.85 6.18 0.764 0.864 1.53 1.73 2.32 2.62 5.12 6.05 5.12 6.05 5.12 9.51-2.52 0.251-5.04 0.476-7.56 0.688-1.06 0.109-1.06 0.109-2.13 0.221-6.2 0.485-10.6-0.955-15.7-4.63-0.652-0.588-1.3-1.18-1.98-1.78-0.668-0.588-1.34-1.18-2.02-1.78-1.6-1.72-1.6-1.72-2.6-4.72h-2c-1.35-1.51-2.63-3.09-3.88-4.69-3.53-4.42-7.19-8.62-11.1-12.8-4.03-4.32-7.99-8.68-11.8-13.2-0.82-0.962-1.64-1.92-2.48-2.91-1.77-2.46-1.77-2.46-1.77-5.46-4.73-1.92-8.41-3.12-13.5-3.1-1.61 0.00483-1.61 0.00483-3.25 0.00977-1.12 0.00838-2.24 0.0168-3.39 0.0254-1.7 0.00677-1.7 0.00677-3.43 0.0137-2.79 0.0118-5.59 0.0283-8.38 0.0488-0.994-5.86-0.919-9.43 1-15 1.49-0.495 1.49-0.495 3-1-0.99-0.66-1.98-1.32-3-2 0.742-0.00365 1.48-0.00729 2.25-0.011 7.03-0.038 14.1-0.0951 21.1-0.173 3.61-0.0393 7.23-0.0716 10.8-0.0871 3.5-0.0153 6.99-0.0499 10.5-0.0973 1.97-0.0218 3.93-0.0242 5.9-0.026 7.95-0.128 15.8-0.711 22.1-6.03 4.86-5.87 3.92-16.4 4.3-23.6 1.07-0.103 2.14-0.206 3.25-0.312 3.67-0.382 3.67-0.382 5.81-2.25 2.72-2.02 4.63-1.79 7.94-1.44z" fill="#1C80A0"/>
<path transform="translate(1085 1047)" d="m0 0c0.764-0.0374 1.53-0.0748 2.32-0.113 2.12 0.426 2.12 0.426 3.89 1.9 1.83 3.74 1.55 7.18 1.42 11.3-0.0345 1.47-0.0679 2.94-0.1 4.42-0.0288 1.27-0.0575 2.53-0.0872 3.83-15.5 0.873-31.1 1.16-46.6 1.13-3.69-0.00547-7.39 3.89e-5 -11.1 0.00635-2.35-6.59e-4 -4.71-0.00194-7.06-0.00391-1.65 0.00304-1.65 0.00304-3.34 0.00613-1.01-0.00315-2.02-0.0063-3.06-0.00955-0.889-7.96e-4 -1.78-0.00159-2.69-0.00241-2.14-0.127-2.14-0.127-4.14-1.13-2.66-0.151-5.28-0.231-7.94-0.25-0.729-0.0206-1.46-0.0412-2.21-0.0625-4.1-0.0382-4.1-0.0382-7.81 1.49-3.91 6.83-2.07 18.2-1.79 25.8 0.0392 1.36 0.0392 1.36 0.0791 2.75 0.228 4.82 0.49 8.38 3.67 12.2 0.887 0.516 1.77 1.03 2.69 1.56 0.763 0.474 1.53 0.949 2.31 1.44v4h-2v2c-0.832 0.241-0.832 0.241-1.68 0.487-2.53 0.741-5.05 1.5-7.57 2.26-0.873 0.253-1.75 0.505-2.64 0.766-4.65 1.42-8.02 2.5-11.1 6.48-4.52-6.78-3.19-16.2-3.24-24-0.00408-0.669-0.00815-1.34-0.0124-2.03-0.0208-3.54-0.0351-7.07-0.0445-10.6-0.0111-3.63-0.0455-7.27-0.0852-10.9-0.0262-2.81-0.0345-5.62-0.0381-8.44-0.00719-1.99-0.0336-3.97-0.0604-5.96 0.0164-6.85 0.128-11.6 4.48-17.1 5.7-2.69 11.4-2.02 17.5-1.62 13.2 0.674 26.4 0.747 39.6 0.75 1.01 0.00232 2.01 0.00463 3.05 0.00702 9.87 0.0203 19.7-0.0165 29.6-0.577 0.689-0.0387 1.38-0.0775 2.09-0.117 4.69-0.305 9.11-1.6 13.8-1.75z" fill="#1C7F9F"/>
<path transform="translate(581,409)" d="m0 0c8.16-0.0463 16.3-0.0819 24.5-0.104 3.79-0.0104 7.58-0.0246 11.4-0.0473 3.66-0.0217 7.31-0.0337 11-0.0389 1.4-0.0037 2.79-0.0109 4.19-0.0217 1.95-0.0145 3.91-0.0154 5.86-0.0156 1.67-0.00666 1.67-0.00666 3.37-0.0135 2.75 0.241 2.75 0.241 5.75 2.24h-2c0.0825 0.887 0.165 1.77 0.25 2.69-0.25 3.31-0.25 3.31-2.18 5.6-2.45 3.2-2.87 5.45-3.51 9.4-1.07 5.65-2.63 10.1-5.48 15.1-2.19 4.39-2.2 8.66-2.15 13.5 0.00902 1.07 0.018 2.14 0.0273 3.24 0.0116 0.808 0.0232 1.62 0.0352 2.45l-2 1-1-6v6c-10.2 5.09-28.2 2.11-39.4 2.06-2.1-0.00503-4.21-0.00959-6.31-0.0137-5.1-0.0109-10.2-0.0281-15.3-0.0488v-4c0.99 0.33 1.98 0.66 3 1 2.45-4.58 3.6-8.45 4.39-13.5 0.877-5.3 1.64-7.74 5.61-11.5 1.22-2.94 2.14-5.94 3-9h2c0.33-3.96 0.66-7.92 1-12h-2c-3.02-2.3-3.37-4.36-4-8z" fill="#1C6885"/>
<path transform="translate(832,718)" d="m0 0c2.88-0.125 2.88-0.125 6 0 0.66 0.66 1.32 1.32 2 2-0.375 2.62-0.375 2.62-1 5h2c0.33 0.66 0.66 1.32 1 2 0.897 0.433 0.897 0.433 1.81 0.875 2.58 1.32 4.22 3.02 6.19 5.12 0.99-0.33 1.98-0.66 3-1 1.52 3.04 1.17 5.64 1 9-0.33 0.887-0.66 1.77-1 2.69-1.52 5.02-1.35 10.1-1 15.3l1 1c0.141 2.67 0.0425 5.32 0 8-1.49 0.495-1.49 0.495-3 1 0.181 3.44 0.181 3.44 1 7 1.94 1.51 1.94 1.51 4 2-1.77 5.56-1.77 5.56-3 7.9-2.72 5.7-3.53 12-2 18.1v2c1.49 0.495 1.49 0.495 3 1 1.13 4.41 1.05 8.62 0.812 13.1-0.0187 0.715-0.0374 1.43-0.0566 2.17-0.111 2.09-0.111 2.09-0.756 5.71-1.32 1.02-2.65 2.02-4 3-0.144 2.98-0.144 2.98 0.312 6.25 0.251 6.07 0.251 6.07-2.3 9.16-2.27 1.72-4.51 3.23-7.01 4.59 0.633 3.77 1.17 5.42 4 8v2c0.99-0.33 1.98-0.66 3-1-0.14 1.65-0.287 3.29-0.438 4.94-0.0812 0.917-0.162 1.83-0.246 2.78-0.316 2.29-0.316 2.29-1.32 3.29-0.235 2.18-0.414 4.37-0.562 6.56-0.0838 1.2-0.168 2.4-0.254 3.63-0.0606 0.927-0.121 1.85-0.184 2.81h-2c-0.144 1.13-0.289 2.27-0.438 3.44-0.562 3.56-0.562 3.56-1.56 4.56-3.37 0.312-3.37 0.312-7 0-2.22-2.17-2.94-3.57-3.39-6.65-0.00591-1.01-0.0118-2.03-0.0179-3.08-0.014-1.17-0.028-2.34-0.0424-3.54-1.36e-4 -1.28-2.72e-4 -2.56-4.12e-4 -3.88-0.0107-1.36-0.0226-2.73-0.0358-4.09-0.0319-3.71-0.0453-7.42-0.055-11.1-0.0131-3.9-0.0423-7.8-0.0694-11.7-0.0434-6.57-0.0754-13.1-0.1-19.7-0.0283-7.54-0.0705-15.1-0.121-22.6-0.0543-8.08-0.0999-16.2-0.142-24.2-0.0125-2.3-0.0263-4.59-0.0405-6.89-0.0814-13.7-0.161-27.5 0.386-41.2 0.0309-0.873 0.0618-1.75 0.0936-2.64 0.221-4.55 0.828-8.37 2.53-12.7z" fill="#2295B4"/>
<path transform="translate(774,782)" d="m0 0c-0.0303 0.991-0.0606 1.98-0.0918 3-1.1 36.7-1.55 73.4-0.264 110 0.343 9.99 0.408 19.9 0.356 29.9h-11v-2c-0.639-0.289-1.28-0.578-1.94-0.875-2.06-1.12-2.06-1.12-3.06-3.12-0.448-5.8-0.00526-10.5 2-16-0.33-0.99-0.66-1.98-1-3-0.66-0.33-1.32-0.66-2-1v-2c-1.42-0.371-1.42-0.371-2.88-0.75-3.12-1.25-3.12-1.25-4.03-3.16-1.43-2.74-3-3.44-5.72-4.84-0.817-0.428-1.63-0.856-2.48-1.3-0.94-0.472-0.94-0.472-1.9-0.953v-5c1.98-0.495 1.98-0.495 4-1-0.0522-0.87-0.0522-0.87-0.105-1.76-0.184-5.31 0.344-8.57 3.11-13.2 1.83-3.96 2.49-7.67 3-12 2.48-0.495 2.48-0.495 5-1 0.21-6.51-0.0779-12.7-2-19-0.66-0.66-1.32-1.32-2-2-1.45-8.15-1.45-8.15 0-12h2c0.268-1.05 0.536-2.1 0.812-3.19 1.19-3.81 1.19-3.81 2.66-6.03 1.99-3.65 2.48-7.08 3.09-11.2 0.827-5.35 1.85-10.4 3.44-15.6 7.62-1 7.62-1 11-1z" fill="#1B6885"/>
<path transform="translate(939 758)" d="m0 0c0.767-9.57e-4 1.53-0.00191 2.32-0.0029 1.62-6.81e-4 3.25 0.00117 4.87 0.00534 2.48 0.00534 4.97 5.59e-5 7.45-0.00635 1.58 6.61e-4 3.15 0.00194 4.73 0.00391 0.744-0.00202 1.49-0.00405 2.25-0.00613 3.14 0.0143 5.62 0.137 8.62 1.14 0.0168 1.02 0.0335 2.04 0.0508 3.09 0.494 10 2.98 16.5 8.63 24.7 4.66 7.07 6.9 14.4 8.95 22.6 1.45 5.56 2.4 8.33 7.37 11.6 2.91 3.59 3.29 6.18 2.91 10.8-0.109 1.01-0.109 1.01-0.221 2.04-0.0612 0.693-0.122 1.39-0.186 2.1-0.152 1.7-0.325 3.39-0.502 5.09h3c-0.99 0.495-0.99 0.495-2 1v7c-2.12 0.75-2.12 0.75-5 1-4.62-2.6-7.53-5.53-10.7-9.75-0.42-0.559-0.84-1.12-1.27-1.69-4.31-5.79-8.36-11.8-12.4-17.7-2.97-4.36-6.09-8.58-9.27-12.8-1.36-2.04-1.36-2.04-1.36-4.04-1.49-0.495-1.49-0.495-3-1-1.64-1.88-3.14-3.75-4.62-5.75-0.439-0.58-0.878-1.16-1.33-1.76-3.78-5.03-7.32-10.2-10.9-15.4-2.71-3.84-5.63-7.46-8.65-11.1-1.53-2.02-1.53-2.02-2.53-5.02 3.19-6.37 6.1-6.15 12.7-6.13z" fill="#1B6986"/>
<path transform="translate(909,518)" d="m0 0c7.07-0.0506 14.1-0.0857 21.2-0.11 2.4-0.0101 4.81-0.0237 7.21-0.041 3.45-0.0242 6.91-0.0356 10.4-0.0444 1.08-0.0103 2.16-0.0206 3.27-0.0313 1.5-2.27e-4 1.5-2.27e-4 3.03-4.58e-4 0.882-0.00444 1.76-0.00888 2.67-0.0135 2.26 0.241 2.26 0.241 5.26 2.24-1.9 8.94-1.9 8.94-5 11h-2c-0.268 0.598-0.536 1.2-0.812 1.81-1.19 2.19-2.45 3.45-4.19 5.19-0.268 0.639-0.536 1.28-0.812 1.94-1.75 3.04-4.2 4.32-7.19 6.06h-2c-0.495 1.49-0.495 1.49-1 3-5.75 1.12-5.75 1.12-8 0-0.193 0.831-0.387 1.66-0.586 2.52-0.26 1.09-0.521 2.17-0.789 3.29-0.255 1.08-0.51 2.16-0.773 3.27-0.852 2.92-0.852 2.92-2.85 5.92-0.666 2.28-0.666 2.28-1.12 4.69-0.168 0.808-0.335 1.62-0.508 2.45-0.182 0.922-0.182 0.922-0.367 1.86 0.99 0.495 0.99 0.495 2 1v11c-4.28 0-5.09-0.431-8.5-2.69-8.65-5.36-16.9-8.69-27.1-9.66-2.4-0.652-2.4-0.652-3.73-2.71-0.219-0.641-0.438-1.28-0.664-1.94 2.97-0.495 2.97-0.495 6-1-1.31-3.12-1.31-3.12-4-5 4.33-2.52 6.2-3.05 11-2 3.74-0.864 3.74-0.864 7-2-0.142-0.657-0.284-1.31-0.43-1.99-1.59-10.3 1.8-18.5 5.43-28h1c0.33-2.31 0.66-4.62 1-7-2.48-0.495-2.48-0.495-5-1 0.33-0.66 0.66-1.32 1-2z" fill="#174E66"/>
<path transform="translate(979,1160)" d="m0 0c0.99 0.33 1.98 0.66 3 1v3h8c-2.48-0.99-2.48-0.99-5-2v-1h8c0.0748 0.592 0.15 1.18 0.227 1.79 0.197 1.19 0.197 1.19 0.398 2.39 0.174 1.17 0.174 1.17 0.352 2.36 1.46 3.52 3.78 5.59 7.02 7.46 2.98 0.668 5.85 0.605 8.9 0.52 1.31-0.00613 1.31-0.00613 2.65-0.0124 2.88-0.0187 5.75-0.0722 8.62-0.125 2-0.017 4-0.0312 6.01-0.043 5.26-0.036 10.5-0.0995 15.8-0.171 8.43-0.113 16.9-0.198 25.3-0.258 2.95-0.027 5.89-0.0736 8.84-0.122 1.8-0.0173 3.6-0.0339 5.4-0.0496 0.821-0.0186 1.64-0.0373 2.49-0.0565 5.5-0.0227 5.5-0.0227 7.74 1.45 1.85 2.71 1.57 4.82 1.47 8.05-0.0406 1.63-0.0406 1.63-0.082 3.29-0.0348 0.831-0.0696 1.66-0.105 2.52-15.4 0.0233-30.7 0.041-46.1 0.0518-7.13 0.00516-14.3 0.0122-21.4 0.0236-6.87 0.011-13.7 0.0168-20.6 0.0194-2.63 0.00185-5.26 0.00547-7.88 0.0109-3.67 0.00722-7.34 0.00826-11 0.0078-1.1 0.0036-2.19 0.00719-3.32 0.0109-0.996-0.00137-1.99-0.00275-3.02-0.00417-0.868 9.22e-4 -1.74 0.00184-2.63 0.00279-2.09-0.123-2.09-0.123-4.09-1.12 0.109-4.29 0.24-8.58 0.375-12.9 0.0309-1.22 0.0619-2.45 0.0938-3.71 0.058-1.75 0.058-1.75 0.117-3.54 0.0314-1.08 0.0628-2.16 0.0952-3.27 0.319-2.61 0.319-2.61 2.32-4.61 0.66-0.33 1.32-0.66 2-1z" fill="#0F3545"/>
<path transform="translate(663,518)" d="m0 0c4.43-0.0249 8.86-0.0429 13.3-0.0549 1.5-5e-3 3.01-0.0118 4.51-0.0205 2.17-0.0122 4.34-0.0178 6.52-0.0222 1.3-0.00524 2.61-0.0105 3.95-0.0159 3.68 0.112 7.1 0.52 10.7 1.11v2c-0.639 0.124-1.28 0.247-1.94 0.375-0.681 0.206-1.36 0.413-2.06 0.625-0.33 0.66-0.66 1.32-1 2-0.66-0.33-1.32-0.66-2-1-0.0374 0.82-0.0748 1.64-0.113 2.48-0.0657 1.08-0.131 2.16-0.199 3.27-0.087 1.6-0.087 1.6-0.176 3.23-0.555 3.27-1.54 4.45-3.51 7.02-0.25 2.3-0.25 2.3 0 4.62 0.188 2.35 0.188 2.35 0 4.38-0.99 0.66-1.98 1.32-3 2 0.165 0.763 0.33 1.53 0.5 2.31 0.5 2.69 0.5 2.69 0.5 5.69 1.65 0.66 3.3 1.32 5 2-0.165 0.763-0.33 1.53-0.5 2.31-0.745 4-0.819 5.21 1.5 8.69-0.375 3.19-0.375 3.19-1 6h-3l-1 2c-0.79-0.326-1.58-0.652-2.39-0.988-10-3.89-20-5.62-30.6-7.01 0.66-2.97 1.32-5.94 2-9h-2c-2.48-3.71-2.67-6.69-2-11 1.12-2.52 2.52-4.66 4-7 0.72-1.98 1.41-3.98 2-6 0.66 0.66 1.32 1.32 2 2v-2h2c0.317-8.69 0.317-8.69-2-17 0.66-0.33 1.32-0.66 2-1l-2-2z" fill="#1C80A0"/>
<path transform="translate(911 409)" d="m0 0c1.22-0.0122 2.44-0.0245 3.69-0.0371 1.75-0.0029 1.75-0.0029 3.53-0.00586 1.05-0.00411 2.1-0.00822 3.19-0.0125 2.66 0.243 2.66 0.243 5.66 2.24-0.193 0.834-0.387 1.67-0.586 2.53-0.54 2.33-1.08 4.67-1.61 7-0.477 2.06-0.967 4.11-1.48 6.16-0.188 0.762-0.376 1.52-0.57 2.31-0.17 0.66-0.34 1.32-0.516 2-0.295 2.52 0.222 4.53 0.766 7 0.975 9.69 0.975 9.69-2.19 13.9-1.39 1.02-1.39 1.02-2.81 2.06-0.804 0.804-1.61 1.61-2.44 2.44-2.56 1.56-2.56 1.56-5.75 1-2.81-1.44-2.81-1.44-4.81-4.44-0.433 0.433-0.866 0.866-1.31 1.31-1.69 1.69-1.69 1.69-3.31 2.94-2.05 2.31-2.05 2.31-2.38 8.75-14.9-0.495-14.9-0.495-30-1-1-5-1-5 0-7 1.61-0.473 3.24-0.88 4.88-1.25 4.11-1.18 4.11-1.18 7.12-4.12 1.51-5.47 2.29-11 3-16.6h3c0.33-0.99 0.66-1.98 1-3h3c1.82-1.31 1.82-1.31 3.56-3 3.23-3 3.23-3 5.44-3 0.99-0.33 1.98-0.66 3-1 0.249-1.6 0.474-3.21 0.688-4.81 0.128-0.893 0.255-1.79 0.387-2.71 0.186-2.54 0.186-2.54-1.55-4.18-0.501-0.429-1-0.859-1.52-1.3v-2c-0.99 0.33-1.98 0.66-3 1-1.73-0.0846-3.46-0.236-5.19-0.438-0.901-0.102-1.8-0.204-2.73-0.309-0.687-0.0838-1.37-0.168-2.08-0.254v-1c7.99-0.998 15.9-1.18 23.9-1.19z" fill="#1C80A0"/>
<path transform="translate(681,409)" d="m0 0c20.4-0.103 40.7-0.204 61 1v2c-7.92 0.495-7.92 0.495-16 1 0.99 0.33 1.98 0.66 3 1-0.33 0.66-0.66 1.32-1 2 0 1.74 0.844 3.32 1.44 4.94 1.7 4.98 2.25 9.83 2.56 15.1-1.51-1.96-2.89-3.78-4-6 0.247 1.52 0.247 1.52 0.5 3.06 1.33 11 0.823 21.3-2.5 31.9-7.23 0.881-14.3 1.13-21.6 1.06-1-0.00451-2.01-0.00902-3.04-0.0137-2.44-0.0116-4.89-0.028-7.33-0.0488v-2c3.47-0.495 3.47-0.495 7-1v-8l2-1c0.125-5.58 0.125-5.58-1-11h2c0.33-0.99 0.66-1.98 1-3l2-1c0.407-2.32 0.744-4.66 1-7-1.17-0.326-2.34-0.652-3.54-0.988-1.55-0.441-3.1-0.882-4.64-1.32-0.769-0.213-1.54-0.427-2.33-0.646-8.16-2.35-8.16-2.35-11.5-5.04v-4h-3c0.0412-0.887 0.0825-1.77 0.125-2.69-0.125-3.31-0.826-5.31-2.12-8.31z" fill="#34A8C3"/>
<path transform="translate(850 517)" d="m0 0c1.19 0.0793 2.38 0.159 3.61 0.24 1.14 0.0896 2.28 0.179 3.46 0.271 1.56 0.121 1.56 0.121 3.16 0.245 2.95 0.618 3.86 1.19 5.65 3.56 2.96 5.49 3.38 9.82 3 16-0.615 0.278-1.23 0.557-1.86 0.844-3.39 1.83-5.43 4.75-7.14 8.16h-2c-1 6.53-1 6.53 0 13-0.99 0.66-1.98 1.32-3 2-0.733 3.07-0.733 3.07-1 6 1.49 0.495 1.49 0.495 3 1-2.48 0.495-2.48 0.495-5 1v2c-2.38 0.0544-4.75 0.0939-7.12 0.125-0.665 0.0168-1.33 0.0335-2.02 0.0508-4.34 0.0426-7.91-0.314-11.9-2.18-1.74-2.75-2.25-4.9-2.27-8.12-0.00953-0.801-0.0191-1.6-0.0289-2.43 9.11e-4 -0.857 0.00182-1.71 0.00276-2.6-0.00429-0.89-0.00857-1.78-0.013-2.7-0.00574-1.88-0.00625-3.76-0.00191-5.64 0.00315-2.87-0.0203-5.74-0.0457-8.6-0.00227-1.83-0.00298-3.66-0.00195-5.49-0.00921-0.853-0.0184-1.71-0.0279-2.59 0.0383-4.97 0.432-8.63 3.39-12.8 5.54-3.32 12-1.83 18.1-1.31z" fill="#1C7F9F"/>
<path transform="translate(636,1123)" d="m0 0c1.32 0.33 2.64 0.66 4 1v3c0.742-0.0412 1.49-0.0825 2.25-0.125 2.84 0.129 4.34 0.696 6.75 2.12-1.38 3.62-2.99 6.99-4.84 10.4-0.564 1.04-1.13 2.09-1.71 3.17-0.604 1.11-1.21 2.22-1.83 3.37-0.623 1.15-1.25 2.3-1.89 3.49-1.29 2.37-2.57 4.75-3.86 7.12-1.74 3.2-3.46 6.4-5.19 9.6-5.29 9.8-10.7 19.5-16.7 28.9-6.57-2.35-9-9.81-11.8-15.7-2.93-6.06-6.18-11.6-10.1-17.1-0.348-0.737-0.696-1.47-1.05-2.23 0.758-2.11 0.758-2.11 2-4 0.33-0.99 0.66-1.98 1-3 3.88-1.39 6.86-2 11-2 0.33-0.99 0.66-1.98 1-3 0.392 0.784 0.784 1.57 1.19 2.38 2.1 3.04 3.19 3.94 6.81 4.62 4.44-2.03 6.28-4.52 8.69-8.69 0.68-1.15 1.36-2.31 2.04-3.46 0.54-0.924 0.54-0.924 1.09-1.87 2.16-3.64 4.43-7.21 6.68-10.8 0.865-1.38 1.73-2.76 2.59-4.14 0.629-1 1.26-2.01 1.91-3.04z" fill="#0F3545"/>
<path transform="translate(897,409)" d="m0 0 1 2h2v2c0.99 0.33 1.98 0.66 3 1 1.78 4.16 0.369 7.89-1 12-4.33 3-4.33 3-7 3-1.79 1.33-1.79 1.33-3.62 3-0.632 0.557-1.26 1.11-1.91 1.69-0.482 0.433-0.964 0.866-1.46 1.31-0.33-0.33-0.66-0.66-1-1-0.33 0.66-0.66 1.32-1 2h-3c0.0619 1.13 0.124 2.27 0.188 3.44 0.0109 6.1-1.82 11.5-5.19 16.6-2.38 0.73-2.38 0.73-5.12 1.19-0.91 0.159-1.82 0.317-2.76 0.48-0.699 0.11-1.4 0.219-2.12 0.332 0.186 0.577 0.371 1.15 0.562 1.75 0.481 2.47 0.115 3.86-0.562 6.25-2.96 0.0538-5.92 0.0936-8.88 0.125-1.26 0.0251-1.26 0.0251-2.55 0.0508-0.806 0.00645-1.61 0.0129-2.44 0.0195-0.744 0.0105-1.49 0.0209-2.25 0.0317-1.88-0.227-1.88-0.227-3.88-2.23 0.92-3.18 1.41-4.65 4.31-6.38 3-0.697 4.74-0.4 7.69 0.375h3c0.33-1.65 0.66-3.3 1-5l2 1c2.08-5.28 2.58-10.4 3-16-0.99-0.33-1.98-0.66-3-1-1-1-1-1-1.1-3.07 0.0116-0.824 0.0232-1.65 0.0352-2.5 0.00902-0.826 0.018-1.65 0.0273-2.5 0.0116-0.638 0.0232-1.28 0.0352-1.93 0.66 0.66 1.32 1.32 2 2-0.495-1.98-0.495-1.98-1-4l-2 1c-0.928-1.21-0.928-1.21-1.88-2.44-1.87-2.6-1.87-2.6-4.12-3.56-0.464-1.49-0.464-1.49-0.938-3-0.351-0.99-0.701-1.98-1.06-3-3.18-1.06-5.64-1.2-8.98-1.32-1.16-0.0419-2.33-0.0838-3.53-0.127-1.82-0.059-1.82-0.059-3.68-0.119-1.23-0.0432-2.45-0.0864-3.72-0.131-3.03-0.106-6.06-0.208-9.1-0.307v-2c23.3-0.746 46.6-1.15 70-1z" fill="#2396B5"/>
<path transform="translate(770,704)" d="m0 0c0.99 0.33 1.98 0.66 3 1 0.0494 4.95 0.0857 9.9 0.11 14.8 0.0101 1.68 0.0237 3.37 0.041 5.05 0.0242 2.42 0.0356 4.84 0.0444 7.25 0.0103 0.755 0.0206 1.51 0.0313 2.29 4e-4 1.86-0.104 3.71-0.227 5.56-2.82 2.82-5.88 3.1-9.69 4.02-2.47 0.782-2.47 0.782-3.62 3.08-0.227 0.626-0.454 1.25-0.688 1.9-0.33-0.99-0.66-1.98-1-3-0.66 1.65-1.32 3.3-2 5h-3c-0.413 1.07-0.825 2.14-1.25 3.25-1.41 3.27-2.9 5.52-5.75 7.75h-3v2c-2.64 2.49-4.63 3.89-8.12 4.94-3.06 0.841-3.06 0.841-4.81 3.56-0.351 0.825-0.701 1.65-1.06 2.5 0.833 2.17 0.833 2.17 3 3-0.33-1.65-0.66-3.3-1-5 2.31-0.99 4.62-1.98 7-3l2 2c-1.21 0.309-1.21 0.309-2.44 0.625-0.846 0.454-1.69 0.908-2.56 1.38-0.13 0.904-0.26 1.81-0.395 2.74-0.742 4-2.22 5.76-4.86 8.82-0.768 0.909-1.54 1.82-2.33 2.75-2.4 2.66-4.79 5.25-7.42 7.68h-2v2h-3c-0.66 1.32-1.32 2.64-2 4-0.33-0.99-0.66-1.98-1-3-2.48 0.99-2.48 0.99-5 2-1.26-4.53-0.902-7.14 1.3-11.3 0.355-0.622 0.71-1.24 1.08-1.89 0.364-0.657 0.727-1.31 1.1-1.99 3.52-6.17 7.84-11.5 12.5-16.8 9.6-11.4 18.4-23.4 27.1-35.5 1.83-2.45 3.76-4.77 5.73-7.11 5.6-6.87 9.77-14.7 14.1-22.4z" fill="#0F3646"/>
<path transform="translate(408,1089)" d="m0 0c2.81 0.342 3.87 0.868 5.86 2.94 4.44 6.16 8 12.4 11.3 19.2 1.88 3.93 3.91 7.49 6.38 11.1 3.34 5.31 3.29 10.6 2.5 16.8-1.61 1.61-3.47 1.47-5.69 1.75-0.849 0.119-1.7 0.237-2.57 0.359-2.74-0.109-2.74-0.109-5.36-1.6-5.66-2.53-11.6-1.55-17.7-1.21-7.21 0.218-11.7-1.15-17.7-5.29 0.45-0.9 0.9-1.8 1.36-2.73 0.305-0.609 0.609-1.22 0.923-1.85 0.695-1.39 1.39-2.78 2.09-4.17 2.17-4.33 4.32-8.66 6.47-13 0.482-0.974 0.965-1.95 1.46-2.95 0.95-1.92 1.9-3.84 2.84-5.76 2.36-4.75 4.79-9.22 7.86-13.5z" fill="#FAFDFF"/>
<path transform="translate(247,1132)" d="m0 0c1.32 0.33 2.64 0.66 4 1v2c1.55-0.124 1.55-0.124 3.12-0.25 1.96 0.277 1.96 0.277 3.88 1.25 1.69 2.76 2.9 5.64 4.21 8.6 2 3.78 4.29 6.53 7.23 9.59 0.475 0.495 0.95 0.989 1.44 1.5 0.468 0.486 0.937 0.973 1.42 1.47 9.7 10.2 9.7 10.2 9.7 13.8 0.566 0.229 1.13 0.459 1.71 0.695 2.89 1.65 4.66 3.68 6.85 6.18 0.764 0.864 1.53 1.73 2.32 2.62 5.12 6.05 5.12 6.05 5.12 9.51-2.52 0.251-5.04 0.476-7.56 0.688-0.704 0.0728-1.41 0.146-2.13 0.221-6.2 0.485-10.6-0.955-15.7-4.63-0.652-0.588-1.3-1.18-1.98-1.78-0.668-0.588-1.34-1.18-2.02-1.78-1.6-1.72-1.6-1.72-2.6-4.72h-2c-1.35-1.51-2.63-3.09-3.88-4.69-3.53-4.42-7.19-8.63-11.1-12.8-5.61-5.99-10.9-12.2-16.1-18.6 0.652-2.39 0.652-2.39 2-5 2.57-1.07 2.57-1.07 5.56-1.69 1.82-0.387 3.64-0.814 5.44-1.31 0.33-0.66 0.66-1.32 1-2z" fill="#35A9C3"/>
<path transform="translate(622,409)" d="m0 0c3.6-0.058 7.21-0.0936 10.8-0.125 1.02-0.0168 2.05-0.0335 3.1-0.0508 0.983-0.00645 1.97-0.0129 2.98-0.0195 0.906-0.0105 1.81-0.0209 2.75-0.0317 2.36 0.227 2.36 0.227 5.36 2.23h-2c0.0825 0.887 0.165 1.77 0.25 2.69-0.25 3.31-0.25 3.31-2.18 5.6-2.45 3.2-2.87 5.45-3.51 9.4-1.07 5.65-2.63 10.1-5.48 15.1-2.19 4.39-2.2 8.66-2.15 13.5 0.00902 1.07 0.018 2.14 0.0273 3.24 0.0116 0.808 0.0232 1.62 0.0352 2.45-0.99 0.495-0.99 0.495-2 1-0.495-2.97-0.495-2.97-1-6v6c-8.66 4.33-23.4 2.1-33 2-0.738-13.6-0.738-13.6 4-20h9v3c-1.98 0.495-1.98 0.495-4 1 2.35 0.413 2.35 0.413 5 0 1.94-2.1 1.94-2.1 3.44-4.94 0.59-1 1.18-2 1.79-3.03 0.585-1 1.17-2 1.77-3.03 1.09-1.65 2.19-3.3 3.31-4.94 0.915-1.34 1.81-2.69 2.69-4.06 0.402-0.587 0.804-1.17 1.22-1.78 1.18-3.35 0.516-6.43-0.0312-9.85-0.096-0.681-0.192-1.36-0.291-2.06-0.545-3.77-0.545-3.77-1.9-7.31z" fill="#1C7F9F"/>
<path transform="translate(865,1123)" d="m0 0c0.876 0.489 0.876 0.489 1.77 0.988 3.26 1.48 6.47 1.22 9.98 1.14 2.42-0.0417 4.83-0.0833 7.25-0.125 1.09 14.2 0.946 28.4 0.562 42.6-0.0534 2.18-0.106 4.36-0.158 6.55-0.127 5.28-0.263 10.6-0.404 15.8-2.94 0.0539-5.87 0.0936-8.81 0.125-0.833 0.0168-1.67 0.0335-2.53 0.0508-0.802 0.00645-1.6 0.0129-2.43 0.0195-1.11 0.0157-1.11 0.0157-2.24 0.0317-1.99-0.227-1.99-0.227-4.99-2.23-0.305-4.8 0.0148-9.36 0.496-14.1 0.518-5.6 0.719-11.2 0.821-16.8 0.0208-0.983 0.0416-1.97 0.063-2.98 0.0646-3.1 0.124-6.19 0.183-9.29 0.0433-2.12 0.0869-4.24 0.131-6.35 0.106-5.15 0.208-10.3 0.307-15.5z" fill="#1C6986"/>
<path transform="translate(549,1048)" d="m0 0c5.08 3.94 7.9 9.48 11 15 0.651 1.13 1.3 2.27 1.97 3.43 0.656 1.17 1.31 2.34 1.96 3.5 0.607 1.08 1.21 2.16 1.84 3.28 1.22 2.79 1.22 2.79 0.223 5.79-0.928-0.103-1.86-0.206-2.81-0.312-3.32-0.0523-3.32-0.0523-5 2.5-1.11 2.64-1.78 4.98-2.19 7.81 1.49 0.495 1.49 0.495 3 1-0.949 0.289-1.9 0.578-2.88 0.875-3.18 0.893-3.18 0.893-5.12 3.12-1.97 0.227-1.97 0.227-4.35 0.195-0.851-0.00645-1.7-0.0129-2.58-0.0195-0.889-0.0168-1.78-0.0335-2.7-0.0508-1.35-0.0135-1.35-0.0135-2.72-0.0273-2.22-0.0236-4.44-0.0565-6.66-0.0977-1.95-12.5-4.16-28.2-1.12-40.6 4.34-4.98 11.8-7.95 18.1-5.44z" fill="#34A8C3"/>
<path transform="translate(1085 1047)" d="m0 0c0.764-0.0374 1.53-0.0748 2.32-0.113 2.12 0.426 2.12 0.426 3.89 1.9 1.83 3.74 1.55 7.17 1.42 11.3-0.0203 1.19-0.0203 1.19-0.041 2.4-0.0352 1.95-0.089 3.9-0.146 5.85-22 1.71-44 0.642-66 0 0.66-0.66 1.32-1.32 2-2 0.32-3.02 0.32-3.02 0.25-6.44 0.00773-1.73 0.00773-1.73 0.0156-3.5-0.0329-3.24-0.0329-3.24-2.27-6.07 1.37-0.0376 1.37-0.0376 2.76-0.0759 18.6-0.52 37.3-2.64 55.8-3.24z" fill="#1B6885"/>
<path transform="translate(895,866)" d="m0 0h1c0.0701 14.3-0.139 28.5-0.5 42.8-0.0484 1.98-0.0966 3.96-0.145 5.94-0.116 4.77-0.236 9.54-0.355 14.3h-31v-10c3-3 3-3 5.05-3.91 2.56-1.42 3.08-2.79 4.2-5.46 0.503-1.16 0.503-1.16 1.02-2.34 0.938-2.52 0.938-2.52 0.734-6.29 0.38-1.68 0.822-3.35 1.31-5 0.365-1.27 0.365-1.27 0.738-2.56 0.949-2.44 0.949-2.44 2.51-4.27 2.07-3.13 2-6.28 2.12-9.92 0.0342-0.697 0.0683-1.39 0.104-2.11 0.0821-1.71 0.147-3.42 0.209-5.14h3c0.33-1.32 0.66-2.64 1-4h9v-2z" fill="#184F67"/>
<path transform="translate(577,1096)" d="m0 0c0.504 0.987 0.504 0.987 1.02 1.99 6.61 12.9 13.4 25.7 20.7 38.1 5.7 9.71 5.7 9.71 5.24 14.9-3.82 1.42-6.91 2.24-11 2v2c0.99 0.495 0.99 0.495 2 1-1.98 0.66-3.96 1.32-6 2-0.853-1.45-0.853-1.45-1.72-2.93-5.13-8.69-5.13-8.69-10.8-17-3.48-4.81-6.01-9.96-8.58-15.3-1.77-3.66-3.62-7.09-5.92-10.5-1.94-3.31-1.94-3.31-1.75-6.31 0.268-0.66 0.536-1.32 0.812-2 1.39-0.34 1.39-0.34 2.81-0.688 3.79-1.56 4.17-2.9 6.19-6.31 2.47-0.783 4.43-1 7-1z" fill="#184F67"/>
<path transform="translate(171,1137)" d="m0 0c0.66 0.66 1.32 1.32 2 2 1.67-0.3 3.34-0.636 5-1 0.99 0.33 1.98 0.66 3 1v-2h8c1.08 13.5 1.08 13.5 1 19.2-0.28 3.56-0.28 3.56 1 5.75 0.565 9.13 0.336 19.1-2 28-3.12 0.0579-6.25 0.0936-9.38 0.125-0.889 0.0168-1.78 0.0335-2.7 0.0508-1.28 0.00967-1.28 0.00967-2.58 0.0195-1.18 0.0157-1.18 0.0157-2.38 0.0317-1.97-0.227-1.97-0.227-3.97-2.23-0.151-1.88-0.151-1.88-0.0117-4.14 0.0471-0.824 0.0941-1.65 0.143-2.5 0.0599-0.862 0.12-1.72 0.182-2.61 0.0483-0.847 0.0967-1.69 0.146-2.57 0.274-4.46 0.788-8.77 1.54-13.2 0.0399-1.52 0.0435-3.04 0-4.56-0.0688-2.41 0.00251-4.45 0.496-6.82 0.583-3.03 0.6-5.85 0.566-8.93-0.0135-1.6-0.0135-1.6-0.0273-3.24-0.0116-0.808-0.0232-1.62-0.0352-2.45z" fill="#2295B4"/>
<path transform="translate(531,1134)" d="m0 0c0.66 0.33 1.32 0.66 2 1 2.72 0.0718 5.41 0.093 8.12 0.0625 1.13-0.00677 1.13-0.00677 2.29-0.0137 1.86-0.0118 3.73-0.0297 5.59-0.0488 0.168 7.19 0.328 14.4 0.482 21.6 0.0534 2.45 0.109 4.89 0.166 7.34 0.082 3.51 0.157 7.03 0.231 10.5 0.027 1.09 0.0541 2.19 0.0819 3.32 0.0201 1.02 0.0402 2.04 0.0609 3.09 0.02 0.897 0.04 1.79 0.0606 2.72-0.0782 2.3-0.43 4.22-1.08 6.42-3.88 0.953-7.21 1.02-11.2 0.688-1.05-0.0786-2.09-0.157-3.17-0.238-2.64-0.449-2.64-0.449-4.64-2.45-0.165-2.51-0.208-4.9-0.156-7.4 0.0081-0.752 0.0162-1.5 0.0245-2.28 0.031-2.44 0.079-4.88 0.132-7.32 0.0164-0.804 0.0329-1.61 0.0498-2.44 0.122-5.71 0.282-11.4 0.45-17.1 0.0484-1.71 0.0966-3.41 0.145-5.12 0.116-4.11 0.235-8.21 0.355-12.3z" fill="#174E66"/>
<path transform="translate(826 1049)" d="m0 0c0.781 0.00293 1.56 0.00585 2.37 0.00887 2.52 0.0149 5.05 0.059 7.57 0.104 1.73 0.0169 3.45 0.0326 5.18 0.0469 12 0.122 23.9 0.465 35.8 1.27v1c-5.94 0.33-11.9 0.66-18 1v6c-0.165 0.639-0.33 1.28-0.5 1.94-0.731 3.02-0.529 5.97-0.5 9.06-4.82 0.169-9.64 0.329-14.5 0.482-1.64 0.053-3.27 0.108-4.91 0.166-22.6 0.794-22.6 0.794-27.8-2.9-1.88-2.75-1.88-2.75-1.88-5.19 3.54-9.07 6.93-13.2 17.1-13z" fill="#1C7F9F"/>
<path transform="translate(460,1144)" d="m0 0c3.27 0 4.35 0.145 7 2 1.34 2.27 2.47 4.43 3.56 6.81 0.686 1.44 1.37 2.89 2.07 4.33 0.559 1.17 0.559 1.17 1.13 2.36 1.34 2.7 2.76 5.34 4.21 7.99 0.503 0.926 1.01 1.85 1.52 2.81 0.992 1.82 1.99 3.63 3.01 5.44 2.73 5.06 4.13 8.51 3.51 14.3-3.25 0.145-6.5 0.234-9.75 0.312-0.92 0.0419-1.84 0.0838-2.79 0.127-6.79 0.123-6.79 0.123-9.93-2.51-1.73-3.29-3.11-6.62-4.35-10.1-2.51-6.7-5.83-12.1-10.2-17.8-1-2-1-2-0.805-3.97 1.05-2.64 2.19-3.15 4.68-4.46 3.6-2.07 5.13-3.88 7.12-7.56z" fill="#184F67"/>
<path transform="translate(455,1125)" d="m0 0c2.67 3.33 4.67 6.87 6.69 10.6 0.623 1.15 1.25 2.29 1.89 3.48 1.43 2.9 1.43 2.9 1.43 4.9h-2c-0.33 0.66-0.66 1.32-1 2h-3c-0.681 1.14-0.681 1.14-1.38 2.31-1.86 3.07-3.44 4.13-6.62 5.69h-2v4c-0.58-0.0838-1.16-0.168-1.76-0.254-0.781-0.102-1.56-0.204-2.37-0.309-0.766-0.104-1.53-0.209-2.32-0.316-2.6-0.219-2.6-0.219-5.3 0.379-4.13 0.635-7.98 0.368-12.1 0.0625-1.18-0.0783-1.18-0.0783-2.38-0.158-1.92-0.129-3.83-0.266-5.75-0.404 0.424-1.94 0.865-3.88 1.31-5.81 0.244-1.08 0.487-2.16 0.738-3.27 0.951-2.92 1.62-4.02 3.95-5.92 0.66-0.66 1.32-1.32 2-2 2.66-0.565 5.29-0.738 8-1 0.33-2.97 0.66-5.94 1-9h2l1 4c5.36-0.374 7.5-2 11-6 1-1 1-1 4.06-1.06 1.45 0.0309 1.45 0.0309 2.94 0.0625v-2z" fill="#2295B4"/>
<path transform="translate(693,1047)" d="m0 0c2.39 3.58 2.3 5.37 2.41 9.64 0.0387 1.3 0.0773 2.6 0.117 3.94 0.0315 1.37 0.0627 2.74 0.0938 4.12 0.0382 1.38 0.0772 2.77 0.117 4.15 0.0944 3.39 0.18 6.77 0.258 10.2-3.43 1.14-5.77 0.997-9.38 0.75-1.12-0.067-2.24-0.134-3.4-0.203-3.4-0.576-5.34-1.73-8.23-3.55-0.66 0.33-1.32 0.66-2 1v-2c-0.763-0.144-1.53-0.289-2.31-0.438-2.69-0.562-2.69-0.562-5.69-1.56 0.351-7.72 3.73-15.2 8.74-21 6-5.43 11.4-6.66 19.3-4.96z" fill="#1B6885"/>
<path transform="translate(734,531)" d="m0 0c11.7 4.17 20.8 13.5 27 24v2h2v2c-2.56 1.28-4.38 1.13-7.24 1.13-1.07 0.00129-2.13 0.00258-3.23 0.00391-1.68-0.0058-1.68-0.0058-3.4-0.0117-1.08 0.00387-2.17 0.00773-3.28 0.0117-20.7-0.0247-20.7-0.0247-23.8-3.14 0.33-0.784 0.66-1.57 1-2.38 1.12-2.47 1.12-2.47 1-4.62h2c2.46-4.74 4.31-8.57 4-14h2c0.66-1.65 1.32-3.3 2-5z" fill="#34A8C3"/>
<path transform="translate(1068 1112)" d="m0 0c0.991-0.0129 1.98-0.0258 3-0.0391 0.941-0.00129 1.88-0.00258 2.85-0.00391 0.836-0.00411 1.67-0.00822 2.53-0.0125 2.8 0.28 4.91 1 7.43 2.24 2.09 4.18 1 9.32 1 14h-46c1.32-1.65 2.64-3.3 4-5-0.0227-2.01-0.0227-2.01-1-4-0.673-2-1.34-4-2-6 9.4-0.764 18.8-1.13 28.2-1.19z" fill="#0F3545"/>
<path transform="translate(938,771)" d="m0 0c3.25 0.446 6.48 0.89 9.69 1.56 2.58 0.561 2.58 0.561 6.31 0.438 0.33-0.66 0.66-1.32 1-2 0.135 0.557 0.271 1.11 0.41 1.69 1.27 4.52 2.65 7.7 5.9 11.1 5.69 6.04 10.9 14.7 10.7 23.2-1.31 1.94-1.31 1.94-3 3-2 0-2 0-3.62-1.5-0.454-0.495-0.908-0.99-1.38-1.5v2c-4.75-1.88-4.75-1.88-7-3v-2c-1.49-0.495-1.49-0.495-3-1-1.74-2.03-3.35-4.05-4.94-6.19-0.43-0.565-0.86-1.13-1.3-1.71-8.04-10.7-8.04-10.7-8.76-15.1-0.278-1.36-0.278-1.36-0.562-2.75-0.144-0.742-0.289-1.49-0.438-2.25 4.05-0.184 6.47 0.0651 10 2 1.66 0.377 3.32 0.721 5 1v-2c-1.67 0.0619-1.67 0.0619-3.38 0.125-3.62-0.125-3.62-0.125-5.62-2.12-1.99-0.398-3.99-0.738-6-1v-2z" fill="#1C7F9F"/>
<path transform="translate(179,1114)" d="m0 0h5v2h3c0.33-0.66 0.66-1.32 1-2 2.96 0.613 4.38 1.25 7 3 2.05 0.444 4.11 0.813 6.19 1.12 1.63 0.251 1.63 0.251 3.29 0.508 1.25 0.182 1.25 0.182 2.52 0.367-0.634 0.229-1.27 0.459-1.92 0.695-2.27 1.13-2.27 1.13-2.91 3.55-0.139 0.869-0.278 1.74-0.422 2.63-0.15 0.864-0.299 1.73-0.453 2.62-0.375 2.75-0.375 2.75-0.297 6.51-6.76 1.61-13 2.27-20 2v2c-1.11-0.0412-2.23-0.0825-3.38-0.125-3.67-0.286-3.67-0.286-5.62 2.12-0.897-3.07-1.12-5.79-1.1-8.98 0.00322-0.935 0.00645-1.87 0.00977-2.83 0.00838-0.968 0.0168-1.94 0.0254-2.93 0.00451-0.984 0.00902-1.97 0.0137-2.98 0.0118-2.42 0.0282-4.85 0.0488-7.27 0.99 0.495 0.99 0.495 2 1 1.55-0.0865 3.09-0.24 4.62-0.438 0.817-0.102 1.63-0.204 2.48-0.309 0.626-0.0838 1.25-0.168 1.9-0.254-0.99-0.66-1.98-1.32-3-2z" fill="#184F67"/>
<path transform="translate(386 408)" d="m0 0c0.95-0.0284 1.9-0.0567 2.88-0.0859 2.56 0.461 2.56 0.461 4.42 2.28 1.58 3.01 0.946 4.96 0.141 8.18-0.66-1.32-1.32-2.64-2-4-0.422 3.58 0.0161 5.03 1.81 8.25 1.96 2.98 1.96 2.98 5.19 3.75v6h2c0.33-0.99 0.66-1.98 1-3 2.87 6.93 5.25 13.7 7 21-0.99-0.33-1.98-0.66-3-1-0.33-0.99-0.66-1.98-1-3v6c-3.93-0.337-5.88-1.49-8.58-4.31-2.98-3.56-5.38-7.53-7.85-11.4-1.1-1.72-2.21-3.45-3.31-5.17-0.535-0.844-1.07-1.69-1.62-2.56-2.1-3.24-4.3-6.39-6.54-9.53-1.09-1.99-1.09-1.99-1.22-5.93 1.12-3.06 1.12-3.06 2.85-4.23 2.71-0.991 4.95-1.17 7.84-1.21z" fill="#1C80A0"/>
<path transform="translate(202,1118)" d="m0 0c4.89-0.0248 9.79-0.0429 14.7-0.0549 1.66-0.00502 3.33-0.0118 4.99-0.0205 2.4-0.0122 4.79-0.0178 7.19-0.0222 1.11-0.00774 1.11-0.00774 2.24-0.0156 3.76-4.06e-4 7.24 0.206 10.9 1.11-1.32 0.33-2.64 0.66-4 1 0.0619 0.908 0.124 1.82 0.188 2.75-0.208 3.6-0.572 4.81-3.19 7.25-2.69 0.75-2.69 0.75-5 1-0.33 1.65-0.66 3.3-1 5h-28c-0.968-6.78-1.08-8.95 1-15 0.99-0.33 1.98-0.66 3-1-0.99-0.66-1.98-1.32-3-2z" fill="#1B6885"/>
<path transform="translate(976,1100)" d="m0 0h18c0.371 1.4 0.742 2.81 1.12 4.25 1.54 4.74 3.6 6.18 7.88 8.75v4h-2v2c-0.555 0.161-1.11 0.322-1.68 0.487-2.53 0.741-5.05 1.5-7.57 2.26-0.873 0.253-1.75 0.505-2.64 0.766-4.65 1.42-8.02 2.5-11.1 6.48-3.72-5.57-3.16-12.3-3.12-18.8-0.00387-0.762-0.00773-1.52-0.0117-2.31 0.00994-5.62 0.00994-5.62 1.14-7.88z" fill="#1B6885"/>
<path transform="translate(277,1056)" d="m0 0c6.37 1.27 10 5.12 14 10 3.84 6.02 5.76 12 7 19-1.24-0.0619-2.48-0.124-3.75-0.188-3.39-0.053-3.39-0.053-6.25 1.69-3.17 2.38-6.11 1.69-10 1.5-0.266-0.603-0.531-1.21-0.805-1.83-0.53-1.2-0.53-1.2-1.07-2.42-0.522-1.18-0.522-1.18-1.05-2.39-0.974-2.15-2-4.26-3.07-6.36h-2c-0.33-0.99-0.66-1.98-1-3 0.66-0.99 1.32-1.98 2-3h3c0.508-1.41 1.01-2.83 1.5-4.25 0.278-0.789 0.557-1.58 0.844-2.39 0.835-2.59 0.835-2.59 0.656-6.36z" fill="#184F67"/>
<path transform="translate(410 1137)" d="m0 0c1.9-0.0387 1.9-0.0387 3.84-0.0781 3.95 0.354 6.34 1.19 9.66 3.33 0.495 1.48 0.495 1.48 1 3-0.99 0.66-1.98 1.32-3 2-0.801 2.65-0.801 2.65-1.19 5.62-0.238 1.5-0.238 1.5-0.48 3.04-0.164 1.16-0.164 1.16-0.332 2.34h-2v2h-28c3-2 3-2 5-3 0.88-2.7 0.88-2.7 1.56-5.88 0.721-3.1 1.43-6.1 2.44-9.12-0.66-0.66-1.32-1.32-2-2 4.53-0.867 8.89-1.19 13.5-1.25z" fill="#33A7C3"/>
<path transform="translate(865,1165)" d="m0 0c0.66 0.66 1.32 1.32 2 2 1.14-0.495 1.14-0.495 2.31-1 3.69-1 3.69-1 14.7-1v25c-2.91 0.0412-5.82 0.0825-8.81 0.125-1.37 0.0273-1.37 0.0273-2.76 0.0552-0.723 5e-3 -1.45 0.00999-2.19 0.0151-1.11 0.0157-1.11 0.0157-2.24 0.0317-1.99-0.227-1.99-0.227-4.99-2.23-0.473-7.45-0.372-15.9 2-23z" fill="#184F67"/>
<path transform="translate(247,1132)" d="m0 0c1.32 0.33 2.64 0.66 4 1v2c1.05-0.0825 2.1-0.165 3.19-0.25 1.92 0.23 1.92 0.23 3.81 1.25 2.2 3.82 3.63 7.82 5 12h-3c0.33 0.99 0.66 1.98 1 3-1.21 2.04-1.21 2.04-2.94 4.19-0.566 0.715-1.13 1.43-1.71 2.17-0.667 0.814-0.667 0.814-1.35 1.64-0.66-0.33-1.32-0.66-2-1-0.33 0.99-0.66 1.98-1 3-8.25-3.73-13.6-12-19-19 0.652-2.39 0.652-2.39 2-5 2.57-1.07 2.57-1.07 5.56-1.69 1.82-0.387 3.64-0.814 5.44-1.31 0.33-0.66 0.66-1.32 1-2z" fill="#2396B5"/>
<path transform="translate(171,1137)" d="m0 0c0.66 0.66 1.32 1.32 2 2 1.67-0.3 3.34-0.636 5-1 0.99 0.33 1.98 0.66 3 1v-2h8c1.9 23.2 1.9 23.2 0 27-2.79 0.0269-5.58 0.0468-8.38 0.0625-1.19 0.0126-1.19 0.0126-2.41 0.0254-5.99 0.0254-5.99 0.0254-8.22-1.09-0.0274-1.4-0.0466-2.79-0.0625-4.19-0.0116-0.777-0.0232-1.55-0.0352-2.36 0.0977-2.46 0.0977-2.46 0.598-4.86 0.582-3.02 0.596-5.83 0.562-8.91-0.00902-1.07-0.018-2.14-0.0273-3.24-0.0116-0.808-0.0232-1.62-0.0352-2.45z" fill="#1C80A0"/>
<path transform="translate(531,1103)" d="m0 0h1c0.33 1.98 0.66 3.96 1 6h16c1.24 8.81 0.711 17.2 0 26-2.62 0.221-5.25 0.427-7.88 0.625-0.746 0.0645-1.49 0.129-2.26 0.195-1.95 0.141-3.91 0.167-5.86 0.18-2.69-2.69-2.32-4.2-2.45-7.96-0.0432-1.19-0.0864-2.39-0.131-3.62-0.0354-1.25-0.0709-2.51-0.107-3.8-0.0471-1.25-0.0941-2.49-0.143-3.77-0.333-10.1-0.333-10.1 0.83-13.9z" fill="#1C6986"/>
<path transform="translate(865,1123)" d="m0 0c0.75 0.491 0.75 0.491 1.52 0.992 3.4 1.38 6.63 1.22 10.2 1.13 3.59-0.0619 3.59-0.0619 7.25-0.125 0.33 5.94 0.66 11.9 1 18-2.93 0.227-5.86 0.454-8.88 0.688-0.922 0.0795-1.84 0.159-2.79 0.241-0.726 0.0481-1.45 0.0962-2.2 0.146-0.744 0.0576-1.49 0.115-2.25 0.175-0.62-0.0821-1.24-0.164-1.88-0.249-2.07-3.1-2.24-3.73-2.2-7.23 0.00645-0.802 0.0129-1.6 0.0195-2.43 0.0168-0.833 0.0335-1.67 0.0508-2.53 0.00902-0.845 0.018-1.69 0.0273-2.56 0.0235-2.08 0.0594-4.17 0.0977-6.25z" fill="#1C7F9F"/>
<path transform="translate(577,1096)" d="m0 0c1.17 2.1 2.34 4.2 3.5 6.31 0.334 0.595 0.668 1.19 1.01 1.8 1.56 2.84 2.49 4.59 2.49 7.88-2.38 1.56-2.38 1.56-5 3-0.66 0.66-1.32 1.32-2 2h-4l1 2c-1.65 0.66-3.3 1.32-5 2-3.82-3.4-6.86-7.35-9-12 0.188-3 0.188-3 1-5 1.39-0.34 1.39-0.34 2.81-0.688 3.79-1.56 4.17-2.9 6.19-6.31 2.47-0.783 4.43-1 7-1z" fill="#1B6885"/>
<path transform="translate(924,677)" d="m0 0c0.124 1.11 0.124 1.11 0.25 2.25 0.534 2.85 0.534 2.85 2.69 4.69 2.54 2.54 3.2 4.61 4.06 8.06v4h-2c0.66 1.65 1.32 3.3 2 5-0.99 0.33-1.98 0.66-3 1v-9c-1.29 1.23-1.29 1.23-3 4 0.165 0.66 0.33 1.32 0.5 2 0.165 0.66 0.33 1.32 0.5 2-0.66 0.99-1.32 1.98-2 3-3.59-3.47-6.76-7.03-9.81-11-0.79-1.01-1.58-2.02-2.39-3.06-1.87-3.07-2.41-4.43-1.79-7.94 3.96-3.96 8.39-7.08 14-5z" fill="#174E66"/>
<path transform="translate(296,1084)" d="m0 0c0.99 0.66 1.98 1.32 3 2 0.249 2.06 0.249 2.06 0.0742 4.57-0.0548 0.896-0.11 1.79-0.166 2.71-0.0728 0.937-0.146 1.87-0.221 2.84-0.0918 1.42-0.0918 1.42-0.186 2.86-0.154 2.34-0.321 4.68-0.502 7.01-0.797-0.721-0.797-0.721-1.61-1.46-2.99-1.93-5.11-2.04-8.64-2.23-1.08-0.0657-2.16-0.131-3.27-0.199-0.82-0.0374-1.64-0.0748-2.48-0.113-0.33 0.66-0.66 1.32-1 2-0.66-0.33-1.32-0.66-2-1v-15c3.46-0.495 3.46-0.495 7-1 0.681-0.516 1.36-1.03 2.06-1.56 2.72-2.02 4.63-1.79 7.94-1.44z" fill="#1B6885"/>
<path transform="translate(460,1144)" d="m0 0c3.21 0 4.36 0.264 7 2 1.52 2.28 1.52 2.28 2.81 4.94 0.44 0.875 0.879 1.75 1.33 2.65 0.855 2.41 0.855 2.41-0.145 5.41-0.887 0.289-1.77 0.578-2.69 0.875-4.14 1.41-6.19 3.08-9.31 6.12v3c-4.15-1.32-6-2.74-8.38-6.38-0.523-0.771-1.05-1.54-1.59-2.34-1.04-2.29-1.04-2.29-0.945-4.43 1.18-2.43 2.41-3.05 4.78-4.3 3.6-2.07 5.13-3.88 7.12-7.56z" fill="#1B6885"/>
<path transform="translate(530,1087)" d="m0 0h2v7c9.4-0.495 9.4-0.495 19-1 0.33 1.65 0.66 3.3 1 5-0.99 0.495-0.99 0.495-2 1v10c-2.77 0.249-5.54 0.475-8.31 0.688-0.786 0.0728-1.57 0.146-2.38 0.221-0.757 0.0548-1.51 0.11-2.29 0.166-0.696 0.0576-1.39 0.115-2.11 0.175-1.9-0.249-1.9-0.249-3.63-1.46-1.63-2.3-1.61-3.65-1.56-6.46 0.00967-0.893 0.0193-1.79 0.0293-2.71 0.0251-0.929 0.0503-1.86 0.0762-2.81 0.0135-0.94 0.0271-1.88 0.041-2.85 0.0354-2.32 0.0847-4.64 0.146-6.96z" fill="#2496B5"/>
<path transform="translate(1080,1047)" d="m0 0c1.44-0.108 2.87-0.186 4.31-0.25 1.2-0.0696 1.2-0.0696 2.43-0.141 2.26 0.391 2.26 0.391 4.04 1.86 1.8 3.75 1.54 7.18 1.41 11.3-0.0203 1.19-0.0203 1.19-0.041 2.4-0.0352 1.95-0.089 3.9-0.146 5.85h-16c0.66-1.32 1.32-2.64 2-4 0.443-2.34 0.812-4.7 1.12-7.06 0.168-1.23 0.335-2.46 0.508-3.72 0.424-3.17 0.424-3.17 0.367-6.21z" fill="#184F67"/>
<path transform="translate(837,1050)" d="m0 0v1c-3.3 0.33-6.6 0.66-10 1-0.66 2.64-1.32 5.28-2 8h-3c0.33 2.97 0.66 5.94 1 9-8.13 0.607-8.13 0.607-12.1-2.19-1.88-2.81-1.88-2.81-1.88-5.25 5.75-14.7 14.1-13.4 28-11.6z" fill="#1C6986"/>
<path transform="translate(282,1171)" d="m0 0c3.78 1.53 5.89 3.83 8.56 6.88 0.764 0.864 1.53 1.73 2.32 2.62 5.12 6.05 5.12 6.05 5.12 9.51-2.54 0.223-5.08 0.429-7.62 0.625-0.713 0.0645-1.43 0.129-2.16 0.195-4.56 0.335-7.9-0.0379-12.2-1.82 0.495-1.48 0.495-1.48 1-3h2v-8c0.66-0.33 1.32-0.66 2-1 1.35 2.71 1.07 5.01 1 8h2c-0.144-0.592-0.289-1.18-0.438-1.79-0.971-4.13-1.84-7.93-1.56-12.2z" fill="#43B3C8"/>
<path transform="translate(738,770)" d="m0 0 2 2c-1.21 0.309-1.21 0.309-2.44 0.625-0.846 0.454-1.69 0.908-2.56 1.38-0.13 0.904-0.26 1.81-0.395 2.74-0.742 4-2.22 5.76-4.86 8.82-0.768 0.909-1.54 1.82-2.33 2.75-2.4 2.66-4.79 5.25-7.42 7.68h-2v2h-3c-0.66 1.32-1.32 2.64-2 4-0.33-0.66-0.66-1.32-1-2 0.33-0.66 0.66-1.32 1-2h-2c0.33-1.65 0.66-3.3 1-5h2c0.33-0.99 0.66-1.98 1-3 1.64-1.69 3.31-3.35 5-5 1.51-1.83 3.01-3.68 4.47-5.55 1.82-1.73 3.05-2.15 5.53-2.45 0.66 0.33 1.32 0.66 2 1-0.33-1.65-0.66-3.3-1-5 2.31-0.99 4.62-1.98 7-3z" fill="#10394A"/>
<path transform="translate(171,1137)" d="m0 0c0.66 0.66 1.32 1.32 2 2 1.67-0.3 3.34-0.636 5-1 0.99 0.33 1.98 0.66 3 1v-2h8v12h-18v-12z" fill="#1C6986"/>
<path transform="translate(531,1103)" d="m0 0h1c0.33 1.98 0.66 3.96 1 6h16c0.33 3.3 0.66 6.6 1 10-2.2 0.234-4.41 0.467-6.61 0.695-2.56 0.281-2.56 0.281-5.7 1.12-2.69 0.188-2.69 0.188-5-1.12-2.79-4.44-3.28-9.88-2.2-15 0.169-0.557 0.338-1.11 0.512-1.69z" fill="#1C7F9F"/>
<path transform="translate(830,665)" d="m0 0c3.55 0.262 4.78 0.768 7.27 3.4 0.694 0.982 1.39 1.96 2.1 2.98 0.709 0.977 1.42 1.95 2.15 2.96 0.487 0.879 0.975 1.76 1.48 2.66-0.33 0.99-0.66 1.98-1 3-1.62 0.195-3.25 0.381-4.88 0.562-0.905 0.104-1.81 0.209-2.74 0.316-2.38 0.121-2.38 0.121-4.38-0.879-0.988-2.96-1.13-4.97-1.12-8.06-0.00258-0.878-0.00516-1.76-0.00781-2.66 0.133-2.28 0.133-2.28 1.13-4.28z" fill="#2396B5"/>
<path transform="translate(568,1078)" d="m0 0c1.46 2.65 2 3.89 2 7-1.7 0.712-1.7 0.712-3.44 1.44-3.32 1.2-3.32 1.2-4.56 2.56-2 0.0408-4 0.0425-6 0 0.324-3.37 0.703-6.32 2.06-9.44 3.12-2.52 6.01-1.82 9.94-1.56z" fill="#2295B4"/>
<path transform="translate(462,1140)" d="m0 0c0.99 0.66 1.98 1.32 3 2v2h-2c-0.33 0.66-0.66 1.32-1 2h-3c-0.392 0.743-0.784 1.48-1.19 2.25-2.48 3.77-5.65 5.17-9.81 6.75h-2v-6c1.91-0.984 3.83-1.96 5.75-2.94 1.6-0.818 1.6-0.818 3.23-1.65 2.4-1.12 4.43-1.92 7.02-2.41v-2z" fill="#1C80A0"/>
<path transform="translate(531,1178)" d="m0 0h1c0.289 1.11 0.577 2.23 0.875 3.38 0.817 3.63 0.817 3.63 3.12 5.62 2.6 0.281 2.6 0.281 5.5 0.188 0.98-0.00645 1.96-0.0129 2.97-0.0195 2.52-0.00356 2.52-0.00356 4.53-1.17v4c-3.88 0.953-7.21 1.02-11.2 0.688-1.05-0.0786-2.09-0.157-3.17-0.238-2.64-0.449-2.64-0.449-4.64-2.45-0.201-3.69-0.174-6.48 1-10z" fill="#0F3545"/>
<path transform="translate(413,1045)" d="m0 0c3.37 2.72 4.44 6.07 6 10-0.598-0.186-1.2-0.371-1.81-0.562-2.35-0.658-2.35-0.658-5.19 0.562-2.19-0.938-2.19-0.938-4-2 0.35-3.24 0.562-4.62 3.06-6.81 0.639-0.392 1.28-0.784 1.94-1.19z" fill="#2396B5"/>
<path transform="translate(292,1181)" d="m0 0c5.22 4.82 5.22 4.82 6 9-2.58 0.222-5.17 0.428-7.75 0.625-0.73 0.0645-1.46 0.129-2.21 0.195-4.29 0.312-6.08 0.16-10-1.82 6.44-0.495 6.44-0.495 13-1 0.33-2.31 0.66-4.62 1-7z" fill="#34A8C3"/>
<path transform="translate(726,778)" d="m0 0h2c-1.67 3.96-4.13 6.84-7 10h-2c-0.227 0.949-0.454 1.9-0.688 2.88-1.31 3.12-1.31 3.12-3.94 4.5-1.18 0.309-1.18 0.309-2.38 0.625v-3h2c0.33-0.99 0.66-1.98 1-3 1.64-1.69 3.31-3.35 5-5 1.58-1.86 3.13-3.74 4.67-5.64 0.44-0.447 0.879-0.895 1.33-1.36z" fill="#184F67"/>
<path transform="translate(929,759)" d="m0 0c1.98 0.66 3.96 1.32 6 2-0.773 1.18-0.773 1.18-1.56 2.38-0.474 0.866-0.949 1.73-1.44 2.62 0.33 0.66 0.66 1.32 1 2h-4v-2c-0.99-0.33-1.98-0.66-3-1l3-6z" fill="#1C80A0"/>
<path transform="translate(573,445)" d="m0 0h1c-0.33 3.63-0.66 7.26-1 11h-4c0.607-4.13 2.04-7.33 4-11z" fill="#1B6784"/>
<path transform="translate(754,751)" d="m0 0c0.66 0.99 1.32 1.98 2 3-0.84 3.43-1.49 5.49-4 8h-3c0.33-0.99 0.66-1.98 1-3h2c0.144-1.13 0.289-2.27 0.438-3.44 0.562-3.56 0.562-3.56 1.56-4.56z" fill="#0F3747"/>
</svg>
