<?xml version="1.0" encoding="UTF-8" standalone="no" ?>
<!DOCTYPE svg PUBLIC "-//W3C//DTD SVG 1.1//EN" "http://www.w3.org/Graphics/SVG/1.1/DTD/svg11.dtd">
<svg xmlns="http://www.w3.org/2000/svg" xmlns:xlink="http://www.w3.org/1999/xlink" version="1.1" width="1280" height="1024" viewBox="0 0 1280 1024" xml:space="preserve">
<desc>Created with Fabric.js 5.3.0</desc>
<defs>
</defs>
<g transform="matrix(1 0 0 1 640 512)" id="background-logo"  >
<rect style="stroke: none; stroke-width: 0; stroke-dasharray: none; stroke-linecap: butt; stroke-dashoffset: 0; stroke-linejoin: miter; stroke-miterlimit: 4; fill: rgb(255,255,255); fill-opacity: 0; fill-rule: nonzero; opacity: 1;"  paint-order="stroke"  x="-640" y="-512" rx="0" ry="0" width="1280" height="1024" />
</g>
<g transform="matrix(1.5791048883427419 0 0 1.5791048883427419 217.72025608320257 512.3920722135008)" id="logo-logo"  >
<g style=""  paint-order="stroke"   >
		<g transform="matrix(0.0838747091998703 0 0 -0.08387470919987032 0 0)"  >
<linearGradient id="SVGID_636212" gradientUnits="userSpaceOnUse" gradientTransform="matrix(1 0 0 1 2250.2 2596.569999999999)"  x1="0" y1="0" x2="0" y2="2096">
<stop offset="0%" style="stop-color:rgb(48,35,174);stop-opacity: 1"/>
<stop offset="100%" style="stop-color:rgb(200,109,215);stop-opacity: 1"/>
</linearGradient>
<path style="stroke: none; stroke-width: 1; stroke-dasharray: none; stroke-linecap: butt; stroke-dashoffset: 0; stroke-linejoin: miter; stroke-miterlimit: 4; fill: url(#SVGID_636212); fill-rule: nonzero; opacity: 1;"  paint-order="stroke"  transform=" translate(-3525.1849999999995, -3644.564999999999)" d="M 4408.42 4591.32 L 4532.59 4467.15 L 4295.71 4230.2699999999995 C 4107.17 4509 3788.14 4692.5599999999995 3427.07 4692.5599999999995 C 2849.2000000000003 4692.5599999999995 2379.07 4222.429999999999 2379.07 3644.5599999999995 C 2379.07 3584.4599999999996 2384.4700000000003 3525.6299999999997 2394.27 3468.2999999999993 L 2582.19 3656.2199999999993 C 2588.5 4116.879999999999 2964.94 4489.719999999999 3427.07 4489.719999999999 C 3732.4500000000003 4489.719999999999 4000.48 4326.929999999999 4148.99 4083.5699999999993 L 3649.0299999999997 3583.609999999999 L 3222.7299999999996 4009.939999999999 L 2616.9399999999996 3404.119999999999 L 2250.2 3037.3599999999988 C 2277.3999999999996 2971.569999999999 2310.99 2909.029999999999 2350.41 2850.739999999999 L 2558.45 3058.809999999999 C 2747.02 2780.109999999999 3065.99 2596.569999999999 3427.0699999999997 2596.569999999999 C 4004.93 2596.569999999999 4475.0599999999995 3066.699999999999 4475.0599999999995 3644.5599999999986 C 4475.0599999999995 3704.4999999999986 4469.679999999999 3763.1599999999985 4459.95 3820.319999999999 L 4271.91 3632.3099999999986 C 4265.29 3171.9099999999985 3888.99 2799.4099999999985 3427.0699999999997 2799.4099999999985 C 3121.7099999999996 2799.4099999999985 2853.7099999999996 2962.1699999999983 2705.1699999999996 3205.5099999999984 L 3222.7299999999996 3723.0599999999986 L 3649.0299999999997 3296.7299999999987 L 4237.219999999999 3884.9199999999987 L 4237.329999999999 3884.529999999999 L 4396.049999999999 4043.279999999999 L 4395.909999999999 4043.6499999999987 L 4675.999999999999 4323.729999999999 L 4800.169999999999 4199.559999999999 L 4800.169999999999 4591.319999999999 L 4408.419999999999 4591.319999999999" stroke-linecap="round" />
</g>
</g>
</g>
<g transform="matrix(1.9211538461538462 0 0 1.9211538461538462 839.6202152864993 473.1473154523292)" id="text-logo"  >
<g style=""  paint-order="stroke"   >
		<g transform="matrix(1 0 0 1 0 0)" id="text-logo-path-0"  >
<path style="stroke: none; stroke-width: 0; stroke-dasharray: none; stroke-linecap: butt; stroke-dashoffset: 0; stroke-linejoin: miter; stroke-miterlimit: 4; fill: rgb(150,130,215); fill-rule: nonzero; opacity: 1;"  paint-order="stroke"  transform=" translate(-187.36999999999998, 19.634999999999998)" d="M 17.92 -12.76 L 25.06 0 L 36.08 0 L 27.78 -14.96 C 31.61 -17.46 33.81 -21.69 33.81 -26.22 C 33.81 -33.7 27.84 -39.67 20.42 -39.67 L 3.6 -39.67 L 3.6 0 L 13.28 0 L 13.28 -12.76 Z M 13.28 -21.92 L 13.28 -30.51 L 20.42 -30.51 C 22.85 -30.51 24.71 -28.65 24.71 -26.22 C 24.71 -23.9 22.74 -21.92 20.42 -21.92 Z M 79.92 0 L 90.25 0 L 75.69 -39.67 L 65.37 -39.67 L 50.87 0 L 61.19 0 L 63.74 -6.9 L 77.37 -6.9 Z M 67.05 -16.07 L 70.59 -25.64 L 74.01 -16.07 Z M 137.05 -39.61 L 137 -39.67 L 126.61 -22.33 L 116.23 -39.67 L 106.55 -39.67 L 106.55 0 L 116.23 0 L 116.23 -21.98 L 125.45 -6.5 L 127.83 -6.5 L 137.05 -21.98 L 137.05 0 L 146.68 0 L 146.68 -39.67 L 137.05 -39.67 Z M 222.6 -30.51 L 222.6 -39.67 L 192.97 -39.67 L 192.97 -30.51 L 203 -30.51 L 203 0 L 212.63 0 L 212.63 -30.51 Z M 248.59 -9.11 L 248.59 -15.72 L 262.39 -15.72 L 262.39 -24.82 L 248.59 -24.82 L 248.59 -30.51 L 263.78 -30.51 L 263.78 -39.67 L 238.9 -39.67 L 238.9 0 L 264.07 0 L 264.07 -9.11 Z M 280.31 -19.66 C 280.31 -8.35 289.59 0.81 300.79 0.81 C 308.27 0.81 315.35 -3.48 318.83 -10.09 L 310.3 -14.73 C 308.56 -11.19 304.73 -8.87 300.79 -8.87 C 294.87 -8.87 289.94 -13.8 289.94 -19.66 C 289.94 -25.58 294.93 -30.45 300.79 -30.45 C 304.73 -30.45 308.33 -28.36 310.24 -24.88 L 318.71 -29.41 C 315.17 -36.02 308.27 -40.08 300.79 -40.08 C 289.54 -40.08 280.31 -31.03 280.31 -19.66 Z M 361.51 -39.67 L 361.51 -24.88 L 345.62 -24.88 L 345.62 -39.67 L 335.94 -39.67 L 335.94 0 L 345.62 0 L 345.62 -15.72 L 361.51 -15.72 L 361.51 0 L 371.14 0 L 371.14 -39.67 Z" stroke-linecap="round" />
</g>
</g>
</g>
<g transform="matrix(1.9211538461538462 0 0 1.9211538461538462 839.7114700941917 575.3772890996805)" id="tagline-3e2d5839-917f-4811-b863-91b455f4178e-logo"  >
<g style=""  paint-order="stroke"   >
		<g transform="matrix(1 0 0 1 -5.684342e-14 0)" id="tagline-3e2d5839-917f-4811-b863-91b455f4178e-logo-path-0"  >
<path style="stroke: none; stroke-width: 0; stroke-dasharray: none; stroke-linecap: butt; stroke-dashoffset: 0; stroke-linejoin: miter; stroke-miterlimit: 4; fill: rgb(251,82,114); fill-rule: nonzero; opacity: 1;"  paint-order="stroke"  transform=" translate(-205.77, 11.055)" d="M 24.62 -11.71 L 13.73 -11.71 L 13.73 -9.41 L 21.68 -9.41 C 21.09 -7.03 19.6 -4.88 17.56 -3.5 C 16.2 -2.61 14.72 -2.15 13.13 -2.15 C 9.93 -2.15 7.06 -3.83 5.48 -6.57 C 4.69 -7.92 4.29 -9.44 4.29 -11.05 C 4.29 -14.32 5.97 -17.19 8.71 -18.81 C 10.07 -19.6 11.55 -20 13.13 -20 C 16.3 -20 19.11 -18.35 20.69 -15.71 L 22.94 -17 C 20.86 -20.33 17.23 -22.47 13.13 -22.47 C 8.91 -22.47 5.18 -20.26 3.17 -16.76 C 2.15 -15.02 1.65 -13.1 1.65 -11.05 C 1.65 -6.96 3.83 -3.27 7.36 -1.19 C 9.11 -0.17 11.05 0.36 13.13 0.36 C 16.76 0.36 19.93 -1.49 21.98 -4.42 L 21.98 0 L 24.62 0 Z M 42.21 0 L 42.21 -9.21 L 48.58 -9.21 L 54.35 0 L 57.45 0 L 51.65 -9.31 C 54.85 -9.83 57.22 -12.44 57.22 -15.71 C 57.22 -19.3 54.22 -22.11 50.46 -22.11 L 39.57 -22.11 L 39.57 0 Z M 42.21 -11.52 L 42.21 -19.8 L 50.29 -19.8 C 52.97 -19.8 54.75 -18.18 54.75 -15.71 C 54.75 -13.2 53.06 -11.55 50.46 -11.48 Z M 83.89 0.36 C 88.11 0.36 91.84 -1.88 93.85 -5.38 C 94.88 -7.13 95.37 -9.01 95.37 -11.05 C 95.37 -15.15 93.19 -18.84 89.66 -20.92 C 87.91 -21.95 85.97 -22.47 83.89 -22.47 C 79.66 -22.47 75.93 -20.26 73.92 -16.76 C 72.9 -15.02 72.4 -13.1 72.4 -11.05 C 72.4 -6.96 74.58 -3.27 78.11 -1.19 C 79.86 -0.17 81.81 0.36 83.89 0.36 Z M 83.89 -2.15 C 80.69 -2.15 77.81 -3.83 76.23 -6.57 C 75.44 -7.92 75.04 -9.44 75.04 -11.05 C 75.04 -14.32 76.72 -17.19 79.46 -18.81 C 80.82 -19.6 82.3 -20 83.89 -20 C 87.09 -20 89.96 -18.28 91.54 -15.54 C 92.33 -14.19 92.73 -12.67 92.73 -11.05 C 92.73 -7.79 91.05 -4.92 88.31 -3.33 C 86.95 -2.54 85.47 -2.15 83.89 -2.15 Z M 117.41 0 L 123.12 -18.08 L 128.83 0 L 131.6 0 L 138.6 -22.11 L 135.83 -22.11 L 130.22 -4.39 L 124.64 -22.11 L 121.64 -22.11 L 116.03 -4.39 L 110.45 -22.11 L 107.68 -22.11 L 114.64 0 Z M 171.8 0 L 187.64 0 L 187.64 -2.31 L 174.44 -2.31 L 174.44 -22.11 L 171.8 -22.11 Z M 205.23 0 L 205.23 -22.11 L 202.59 -22.11 L 202.59 0 Z M 222.82 0 L 222.82 -5.91 L 226.84 -10.07 L 235.59 0 L 239.09 0 L 228.69 -11.95 L 238.52 -22.11 L 234.83 -22.11 L 222.82 -9.74 L 222.82 -22.11 L 220.18 -22.11 L 220.18 0 Z M 254.03 0 L 269.87 0 L 269.87 -2.31 L 256.67 -2.31 L 256.67 -9.9 L 267.89 -9.9 L 267.89 -12.21 L 256.67 -12.21 L 256.67 -19.8 L 269.87 -19.8 L 269.87 -22.11 L 254.03 -22.11 Z M 305.71 0 L 305.71 -8.58 L 313.96 -8.58 C 317.76 -8.58 320.73 -11.55 320.73 -15.35 C 320.73 -19.14 317.76 -22.11 313.96 -22.11 L 303.07 -22.11 L 303.07 0 Z M 305.71 -10.89 L 305.71 -19.8 L 313.8 -19.8 C 316.47 -19.8 318.25 -18.02 318.25 -15.35 C 318.25 -12.67 316.47 -10.89 313.8 -10.89 Z M 338.32 0 L 338.32 -9.21 L 344.69 -9.21 L 350.46 0 L 353.56 0 L 347.75 -9.31 C 350.96 -9.83 353.33 -12.44 353.33 -15.71 C 353.33 -19.3 350.33 -22.11 346.57 -22.11 L 335.68 -22.11 L 335.68 0 Z M 338.32 -11.52 L 338.32 -19.8 L 346.4 -19.8 C 349.07 -19.8 350.86 -18.18 350.86 -15.71 C 350.86 -13.2 349.17 -11.55 346.57 -11.48 Z M 380 0.36 C 384.22 0.36 387.95 -1.88 389.96 -5.38 C 390.98 -7.13 391.48 -9.01 391.48 -11.05 C 391.48 -15.15 389.3 -18.84 385.77 -20.92 C 384.02 -21.95 382.07 -22.47 380 -22.47 C 375.77 -22.47 372.04 -20.26 370.03 -16.76 C 369.01 -15.02 368.51 -13.1 368.51 -11.05 C 368.51 -6.96 370.69 -3.27 374.22 -1.19 C 375.97 -0.17 377.92 0.36 380 0.36 Z M 380 -2.15 C 376.79 -2.15 373.92 -3.83 372.34 -6.57 C 371.55 -7.92 371.15 -9.44 371.15 -11.05 C 371.15 -14.32 372.83 -17.19 375.57 -18.81 C 376.93 -19.6 378.41 -20 380 -20 C 383.2 -20 386.07 -18.28 387.65 -15.54 C 388.44 -14.19 388.84 -12.67 388.84 -11.05 C 388.84 -7.79 387.16 -4.92 384.42 -3.33 C 383.06 -2.54 381.58 -2.15 380 -2.15 Z M 408.18 0.33 C 409.13 0.33 409.89 -0.4 409.89 -1.42 C 409.89 -2.38 409.13 -3.14 408.18 -3.14 C 407.15 -3.14 406.43 -2.44 406.43 -1.42 C 406.43 -0.4 407.15 0.33 408.18 0.33 Z M 409.37 -6.44 L 409.5 -22.11 L 406.86 -22.11 L 406.99 -6.44 Z" stroke-linecap="round" />
</g>
</g>
</g>
</svg>