
        <svg xmlns="http://www.w3.org/2000/svg" xmlns:xlink="http://www.w3.org/1999/xlink" version="1.1" width="3176.470588235294" 
        height="1788.2615790398058" viewBox="0 0 3176.470588235294 1788.2615790398058">
			
			<g transform="scale(8.823529411764707) translate(10, 10)">
				<defs id="SvgjsDefs2056"><linearGradient id="SvgjsLinearGradient2063"><stop id="SvgjsStop2064" stop-color="#7d141d" offset="0"></stop><stop id="SvgjsStop2065" stop-color="#ff1e27" offset="1"></stop></linearGradient></defs><g id="SvgjsG2057" featureKey="LwVBM5-0" transform="matrix(0.21980933713411369,0,0,0.21980933713411369,113.04297293335922,-9.851195357493712)" fill="#5893d4"><path xmlns="http://www.w3.org/2000/svg" d=" M 318.333 44.817 L 201.662 169.639 L 210.69 180.802 L 310.37 94 L 390.798 291.314 L 417.626 292.858 L 318.333 44.817 Z " fill="#5893d4"></path><rect xmlns="http://www.w3.org/2000/svg" x="122.53" y="362.155" width="45.523" height="100.152" transform="matrix(-0.928,0.373,-0.373,-0.928,433.898,740.484)" fill="#5893d4"></rect><rect xmlns="http://www.w3.org/2000/svg" x="43.897" y="282.131" width="37.719" height="72.838" transform="matrix(0.928,-0.373,0.373,0.928,-114.321,46.418)" fill="#5893d4"></rect><path xmlns="http://www.w3.org/2000/svg" d=" M 47.21 245.43 L 228.5 172.53 L 283.45 309.17 L 102.16 382.07 L 47.21 245.43 Z  M 62.83 252.09 L 221.84 188.14 L 267.84 302.51 L 108.82 366.46 L 62.83 252.09 Z " fill-rule="evenodd" fill="#5893d4"></path><path xmlns="http://www.w3.org/2000/svg" d=" M 406.72 319.39 L 271.5 311.61 L 218.18 179.04 L 310.37 79.81 L 406.72 319.39 Z  M 388.53 306.32 L 279.79 300.07 L 232.16 181.63 L 306.29 101.83 L 388.53 306.32 Z " fill-rule="evenodd" fill="#5893d4"></path><path xmlns="http://www.w3.org/2000/svg" d=" M 462.73 150.54 L 468.29 148.3 L 472.77 159.43 L 467.2 161.67 L 408.07 185.45 L 402.51 187.69 L 398.03 176.55 L 403.6 174.31 L 462.73 150.54 Z " fill="#5893d4"></path><path xmlns="http://www.w3.org/2000/svg" d=" M 480.06 230.15 L 486.06 229.88 L 486.59 241.87 L 480.6 242.13 L 429.64 244.4 L 423.64 244.67 L 423.11 232.68 L 429.1 232.41 L 480.06 230.15 Z " fill="#5893d4"></path><path xmlns="http://www.w3.org/2000/svg" d=" M 416.68 83.2 L 421.19 79.24 L 429.11 88.26 L 424.6 92.22 L 386.25 125.86 L 381.74 129.82 L 373.83 120.8 L 378.34 116.84 L 416.68 83.2 Z " fill="#5893d4"></path><path xmlns="http://www.w3.org/2000/svg" d=" M 75.02 216.762 L 245.171 148.336 L 237 161.67 L 226.682 182.875 L 84.402 240.093 L 75.02 216.762 Z " fill="#5893d4"></path></g><g id="SvgjsG2058" featureKey="YhTCwJ-0" transform="matrix(3.457392847888456,0,0,3.457392847888456,-6.085012203618105,94.05348712762672)" fill="url(#SvgjsLinearGradient2063)"><path d="M5.62 5.84 q2.78 0 4.09 0.92 t1.31 2.96 q0 1.5 -0.89 2.47 t-2.65 1.29 l4.02 6.52 l-2.06 0 l-3.84 -6.36 l-2.16 0 l0 6.36 l-1.68 0 l0 -14.16 l3.86 0 z M5.44 12.08 q1.98 0 2.88 -0.55 t0.9 -1.79 q0 -1.2 -0.81 -1.77 t-2.51 -0.57 l-2.46 0 l0 4.68 l2 0 z M20.16 5.84 l6.02 14.16 l-1.96 0 l-1.44 -3.48 l-7.08 0 l-1.46 3.48 l-1.9 0 l6.24 -14.16 l1.58 0 z M19.3 8 l-2.94 6.96 l5.78 0 l-2.8 -6.96 l-0.04 0 z M30.560000000000002 5.84 l4.8 11.1 l0.04 0 l4.84 -11.1 l2.44 0 l0 14.16 l-1.68 0 l0 -11.88 l-0.04 0 l-5.08 11.88 l-1.02 0 l-5.08 -11.88 l-0.04 0 l0 11.88 l-1.68 0 l0 -14.16 l2.5 0 z M61.26 5.84 l0 1.56 l-4.68 0 l0 12.6 l-1.68 0 l0 -12.6 l-4.68 0 l0 -1.56 l11.04 0 z M72.14 5.84 l0 1.56 l-7.22 0 l0 4.44 l6.74 0 l0 1.56 l-6.74 0 l0 5.04 l7.58 0 l0 1.56 l-9.26 0 l0 -14.16 l8.9 0 z M81.48 5.48 q1.66 0 2.94 0.59 t2.06 1.63 l-1.46 1.06 q-0.64 -0.86 -1.58 -1.29 t-1.96 -0.43 q-2.26 0 -3.81 1.72 t-1.59 4.16 q0 2.52 1.54 4.19 t3.86 1.69 q2.54 0 4.1 -1.98 l1.26 1.06 q-1.86 2.48 -5.36 2.48 q-3.1 0 -5.13 -2.14 t-2.07 -5.3 q0 -3.16 2.05 -5.28 t5.15 -2.16 z M90.86 5.84 l0 6 l7.56 0 l0 -6 l1.68 0 l0 14.16 l-1.68 0 l0 -6.6 l-7.56 0 l0 6.6 l-1.68 0 l0 -14.16 l1.68 0 z"></path></g><g id="SvgjsG2059" featureKey="duLK5n-0" transform="matrix(0.5818554259376865,0,0,0.5818554259376865,69.6043378553439,170.90452958902998)" fill="#3ba52c"><path d="M8.22 10.84 l5.92 0 l0 6.3 c-1.42 1.9 -3.66 3.08 -6.02 3.08 c-4.1 0 -7.44 -3.34 -7.44 -7.46 c0 -4.1 3.34 -7.44 7.44 -7.44 c2.02 0 3.9 0.8 5.28 2.2 l-1.32 1.16 c-1.04 -1.04 -2.46 -1.6 -3.96 -1.6 c-3.14 0 -5.68 2.54 -5.68 5.68 c0 3.16 2.54 5.7 5.68 5.7 c1.66 0 3.18 -0.7 4.28 -1.92 l0 -3.94 l-4.18 0 l0 -1.76 z M36.656000000000006 12.42 l5.5 7.58 l-2.06 0 l-5.44 -7.48 l-2.04 0 l0 7.48 l-1.72 0 l0 -14.24 l4.94 0 c0.9 0 1.74 0.36 2.38 1 s1 1.48 1 2.38 c0 1.58 -1.1 2.9 -2.56 3.28 z M32.61600000000001 7.48 l0 3.32 l3.22 0 c0.92 0 1.66 -0.74 1.66 -1.66 s-0.74 -1.66 -1.66 -1.66 l-3.22 0 z M63.51200000000001 5.32 c4.1 0 7.46 3.34 7.46 7.46 c0 4.1 -3.36 7.42 -7.46 7.42 s-7.44 -3.32 -7.44 -7.42 c0 -4.12 3.34 -7.46 7.44 -7.46 z M63.51200000000001 18.44 c3.12 0 5.64 -2.56 5.64 -5.66 c0 -3.12 -2.52 -5.7 -5.64 -5.7 s-5.64 2.58 -5.64 5.7 c0 3.1 2.52 5.66 5.64 5.66 z M99.98800000000003 20 l-4.2 -7.34 l-4.18 7.34 l-1.92 0 l-3.98 -14.24 l1.88 0 l3.3 11.9 l3.9 -6.84 l2.02 0 l3.88 6.84 l3.32 -11.9 l1.88 0 l-3.98 14.24 l-1.92 0 z M140.90000000000003 20 l0 -14.24 l1.8 0 l0 12.5 l7.8 0 l0 1.74 l-9.6 0 z M167.47600000000006 20 l0 -14.24 l1.8 0 l0 14.24 l-1.8 0 z M198.19200000000004 20 l-5.9 -8.28 l-3.08 2.9 l0 5.38 l-1.78 0 l0 -14.24 l1.78 0 l0 6.46 l6.86 -6.46 l2.56 0 l-4.98 4.7 l6.8 9.54 l-2.26 0 z M216.70800000000006 20 l0 -14.24 l9 0 l0 1.72 l-7.2 0 l0 3.34 l6.28 0 l0 1.78 l-6.28 0 l0 5.64 l7.02 0 l0 1.76 l-8.82 0 z M260.96000000000004 20 l0 -14.24 l4.96 0 c0.9 0 1.76 0.36 2.4 1 s1 1.5 1 2.4 c0 1.88 -1.54 3.38 -3.4 3.38 l-3.18 0 l0 7.46 l-1.78 0 z M265.92 10.8 c0.88 0 1.6 -0.74 1.6 -1.64 s-0.72 -1.66 -1.6 -1.66 l-3.18 0 l0 3.3 l3.18 0 z M291.31600000000003 12.42 l5.5 7.58 l-2.06 0 l-5.44 -7.48 l-2.04 0 l0 7.48 l-1.72 0 l0 -14.24 l4.94 0 c0.9 0 1.74 0.36 2.38 1 s1 1.48 1 2.38 c0 1.58 -1.1 2.9 -2.56 3.28 z M287.276 7.48 l0 3.32 l3.22 0 c0.92 0 1.66 -0.74 1.66 -1.66 s-0.74 -1.66 -1.66 -1.66 l-3.22 0 z M318.172 5.32 c4.1 0 7.46 3.34 7.46 7.46 c0 4.1 -3.36 7.42 -7.46 7.42 s-7.44 -3.32 -7.44 -7.42 c0 -4.12 3.34 -7.46 7.44 -7.46 z M318.172 18.44 c3.12 0 5.64 -2.56 5.64 -5.66 c0 -3.12 -2.52 -5.7 -5.64 -5.7 s-5.64 2.58 -5.64 5.7 c0 3.1 2.52 5.66 5.64 5.66 z M344.12800000000004 16 l-1.78 0 l0 -10.68 l1.78 0 l0 10.68 z M343.24800000000005 17.66 c0.64 0 1.16 0.52 1.16 1.16 c0 0.66 -0.52 1.18 -1.16 1.18 s-1.18 -0.52 -1.18 -1.18 c0 -0.64 0.54 -1.16 1.18 -1.16 z"></path></g>
			</g>
		</svg>
	